%TF.GenerationSoftware,KiCad,Pcbnew,(5.1.7)-1*%
%TF.CreationDate,2020-11-20T22:02:49-05:00*%
%TF.ProjectId,Temp Probe,54656d70-2050-4726-9f62-652e6b696361,rev?*%
%TF.SameCoordinates,Original*%
%TF.FileFunction,Copper,L2,Bot*%
%TF.FilePolarity,Positive*%
%FSLAX46Y46*%
G04 Gerber Fmt 4.6, Leading zero omitted, Abs format (unit mm)*
G04 Created by KiCad (PCBNEW (5.1.7)-1) date 2020-11-20 22:02:49*
%MOMM*%
%LPD*%
G01*
G04 APERTURE LIST*
%TA.AperFunction,ComponentPad*%
%ADD10C,2.200000*%
%TD*%
%TA.AperFunction,ComponentPad*%
%ADD11R,2.200000X2.200000*%
%TD*%
%TA.AperFunction,ComponentPad*%
%ADD12O,1.700000X1.700000*%
%TD*%
%TA.AperFunction,ComponentPad*%
%ADD13R,1.700000X1.700000*%
%TD*%
%TA.AperFunction,ComponentPad*%
%ADD14C,2.000000*%
%TD*%
%TA.AperFunction,ViaPad*%
%ADD15C,0.800000*%
%TD*%
%TA.AperFunction,Conductor*%
%ADD16C,0.254000*%
%TD*%
%TA.AperFunction,Conductor*%
%ADD17C,0.100000*%
%TD*%
G04 APERTURE END LIST*
D10*
%TO.P,TH1,2*%
%TO.N,GND*%
X71750000Y-120000000D03*
D11*
%TO.P,TH1,1*%
%TO.N,Net-(C1-Pad1)*%
X69210000Y-120000000D03*
%TD*%
D12*
%TO.P,U3,4*%
%TO.N,/SDA*%
X58430000Y-73000000D03*
%TO.P,U3,3*%
%TO.N,/SCL*%
X55890000Y-73000000D03*
%TO.P,U3,2*%
%TO.N,GND*%
X53350000Y-73000000D03*
D13*
%TO.P,U3,1*%
%TO.N,+3V3*%
X50810000Y-73000000D03*
%TD*%
D14*
%TO.P,SW1,1*%
%TO.N,GND*%
X44360000Y-104250000D03*
%TO.P,SW1,2*%
%TO.N,/D7*%
X44360000Y-108750000D03*
%TO.P,SW1,1*%
%TO.N,GND*%
X37860000Y-104250000D03*
%TO.P,SW1,2*%
%TO.N,/D7*%
X37860000Y-108750000D03*
%TD*%
%TO.P,SW2,1*%
%TO.N,GND*%
X57860000Y-104250000D03*
%TO.P,SW2,2*%
%TO.N,/D5*%
X57860000Y-108750000D03*
%TO.P,SW2,1*%
%TO.N,GND*%
X51360000Y-104250000D03*
%TO.P,SW2,2*%
%TO.N,/D5*%
X51360000Y-108750000D03*
%TD*%
%TO.P,SW3,1*%
%TO.N,GND*%
X71360000Y-104250000D03*
%TO.P,SW3,2*%
%TO.N,/D4*%
X71360000Y-108750000D03*
%TO.P,SW3,1*%
%TO.N,GND*%
X64860000Y-104250000D03*
%TO.P,SW3,2*%
%TO.N,/D4*%
X64860000Y-108750000D03*
%TD*%
D12*
%TO.P,J4,10*%
%TO.N,N/C*%
X30480000Y-102870000D03*
%TO.P,J4,9*%
X30480000Y-105410000D03*
%TO.P,J4,8*%
X30480000Y-107950000D03*
%TO.P,J4,7*%
X30480000Y-110490000D03*
%TO.P,J4,6*%
%TO.N,/D12*%
X30480000Y-113030000D03*
%TO.P,J4,5*%
%TO.N,N/C*%
X30480000Y-115570000D03*
%TO.P,J4,4*%
%TO.N,GND*%
X30480000Y-118110000D03*
%TO.P,J4,3*%
%TO.N,N/C*%
X30480000Y-120650000D03*
%TO.P,J4,2*%
%TO.N,/SDA*%
X30480000Y-123190000D03*
D13*
%TO.P,J4,1*%
%TO.N,/SCL*%
X30480000Y-125730000D03*
%TD*%
D12*
%TO.P,J3,8*%
%TO.N,N/C*%
X78740000Y-98840000D03*
%TO.P,J3,7*%
%TO.N,GND*%
X78740000Y-101380000D03*
%TO.P,J3,6*%
%TO.N,N/C*%
X78740000Y-103920000D03*
%TO.P,J3,5*%
X78740000Y-106460000D03*
%TO.P,J3,4*%
%TO.N,+3V3*%
X78740000Y-109000000D03*
%TO.P,J3,3*%
%TO.N,N/C*%
X78740000Y-111540000D03*
%TO.P,J3,2*%
X78740000Y-114080000D03*
D13*
%TO.P,J3,1*%
X78740000Y-116620000D03*
%TD*%
D12*
%TO.P,J2,8*%
%TO.N,N/C*%
X30480000Y-81030000D03*
%TO.P,J2,7*%
X30480000Y-83570000D03*
%TO.P,J2,6*%
X30480000Y-86110000D03*
%TO.P,J2,5*%
X30480000Y-88650000D03*
%TO.P,J2,4*%
%TO.N,/D4*%
X30480000Y-91190000D03*
%TO.P,J2,3*%
%TO.N,/D5*%
X30480000Y-93730000D03*
%TO.P,J2,2*%
%TO.N,N/C*%
X30480000Y-96270000D03*
D13*
%TO.P,J2,1*%
%TO.N,/D7*%
X30480000Y-98810000D03*
%TD*%
D12*
%TO.P,J1,6*%
%TO.N,N/C*%
X78740000Y-81060000D03*
%TO.P,J1,5*%
X78740000Y-83600000D03*
%TO.P,J1,4*%
%TO.N,Net-(J1-Pad4)*%
X78740000Y-86140000D03*
%TO.P,J1,3*%
%TO.N,N/C*%
X78740000Y-88680000D03*
%TO.P,J1,2*%
X78740000Y-91220000D03*
D13*
%TO.P,J1,1*%
X78740000Y-93760000D03*
%TD*%
D12*
%TO.P,D1,2*%
%TO.N,Net-(D1-Pad2)*%
X53320000Y-120750000D03*
D13*
%TO.P,D1,1*%
%TO.N,GND*%
X55860000Y-120750000D03*
%TD*%
D15*
%TO.N,GND*%
X67000000Y-80500000D03*
X39250000Y-122250000D03*
%TD*%
D16*
%TO.N,GND*%
X80873000Y-128873000D02*
X28127000Y-128873000D01*
X28127000Y-124880000D01*
X28991928Y-124880000D01*
X28991928Y-126580000D01*
X29004188Y-126704482D01*
X29040498Y-126824180D01*
X29099463Y-126934494D01*
X29178815Y-127031185D01*
X29275506Y-127110537D01*
X29385820Y-127169502D01*
X29505518Y-127205812D01*
X29630000Y-127218072D01*
X31330000Y-127218072D01*
X31454482Y-127205812D01*
X31574180Y-127169502D01*
X31684494Y-127110537D01*
X31781185Y-127031185D01*
X31860537Y-126934494D01*
X31919502Y-126824180D01*
X31955812Y-126704482D01*
X31968072Y-126580000D01*
X31968072Y-124880000D01*
X31955812Y-124755518D01*
X31919502Y-124635820D01*
X31860537Y-124525506D01*
X31781185Y-124428815D01*
X31684494Y-124349463D01*
X31574180Y-124290498D01*
X31501620Y-124268487D01*
X31633475Y-124136632D01*
X31795990Y-123893411D01*
X31907932Y-123623158D01*
X31965000Y-123336260D01*
X31965000Y-123043740D01*
X31907932Y-122756842D01*
X31795990Y-122486589D01*
X31633475Y-122243368D01*
X31426632Y-122036525D01*
X31252240Y-121920000D01*
X31426632Y-121803475D01*
X31633475Y-121596632D01*
X31795990Y-121353411D01*
X31907932Y-121083158D01*
X31965000Y-120796260D01*
X31965000Y-120603740D01*
X51835000Y-120603740D01*
X51835000Y-120896260D01*
X51892068Y-121183158D01*
X52004010Y-121453411D01*
X52166525Y-121696632D01*
X52373368Y-121903475D01*
X52616589Y-122065990D01*
X52886842Y-122177932D01*
X53173740Y-122235000D01*
X53466260Y-122235000D01*
X53753158Y-122177932D01*
X54023411Y-122065990D01*
X54266632Y-121903475D01*
X54398487Y-121771620D01*
X54420498Y-121844180D01*
X54479463Y-121954494D01*
X54558815Y-122051185D01*
X54655506Y-122130537D01*
X54765820Y-122189502D01*
X54885518Y-122225812D01*
X55010000Y-122238072D01*
X55574250Y-122235000D01*
X55733000Y-122076250D01*
X55733000Y-120877000D01*
X55987000Y-120877000D01*
X55987000Y-122076250D01*
X56145750Y-122235000D01*
X56710000Y-122238072D01*
X56834482Y-122225812D01*
X56954180Y-122189502D01*
X57064494Y-122130537D01*
X57161185Y-122051185D01*
X57240537Y-121954494D01*
X57299502Y-121844180D01*
X57335812Y-121724482D01*
X57348072Y-121600000D01*
X57345000Y-121035750D01*
X57186250Y-120877000D01*
X55987000Y-120877000D01*
X55733000Y-120877000D01*
X55713000Y-120877000D01*
X55713000Y-120623000D01*
X55733000Y-120623000D01*
X55733000Y-119423750D01*
X55987000Y-119423750D01*
X55987000Y-120623000D01*
X57186250Y-120623000D01*
X57345000Y-120464250D01*
X57348072Y-119900000D01*
X57335812Y-119775518D01*
X57299502Y-119655820D01*
X57240537Y-119545506D01*
X57161185Y-119448815D01*
X57064494Y-119369463D01*
X56954180Y-119310498D01*
X56834482Y-119274188D01*
X56710000Y-119261928D01*
X56145750Y-119265000D01*
X55987000Y-119423750D01*
X55733000Y-119423750D01*
X55574250Y-119265000D01*
X55010000Y-119261928D01*
X54885518Y-119274188D01*
X54765820Y-119310498D01*
X54655506Y-119369463D01*
X54558815Y-119448815D01*
X54479463Y-119545506D01*
X54420498Y-119655820D01*
X54398487Y-119728380D01*
X54266632Y-119596525D01*
X54023411Y-119434010D01*
X53753158Y-119322068D01*
X53466260Y-119265000D01*
X53173740Y-119265000D01*
X52886842Y-119322068D01*
X52616589Y-119434010D01*
X52373368Y-119596525D01*
X52166525Y-119803368D01*
X52004010Y-120046589D01*
X51892068Y-120316842D01*
X51835000Y-120603740D01*
X31965000Y-120603740D01*
X31965000Y-120503740D01*
X31907932Y-120216842D01*
X31795990Y-119946589D01*
X31633475Y-119703368D01*
X31426632Y-119496525D01*
X31244466Y-119374805D01*
X31361355Y-119305178D01*
X31577588Y-119110269D01*
X31734425Y-118900000D01*
X67471928Y-118900000D01*
X67471928Y-121100000D01*
X67484188Y-121224482D01*
X67520498Y-121344180D01*
X67579463Y-121454494D01*
X67658815Y-121551185D01*
X67755506Y-121630537D01*
X67865820Y-121689502D01*
X67985518Y-121725812D01*
X68110000Y-121738072D01*
X68336084Y-121738072D01*
X68289550Y-121784606D01*
X68159866Y-121978692D01*
X68070539Y-122194348D01*
X68025000Y-122423288D01*
X68025000Y-122656712D01*
X68070539Y-122885652D01*
X68159866Y-123101308D01*
X68289550Y-123295394D01*
X68454606Y-123460450D01*
X68648692Y-123590134D01*
X68864348Y-123679461D01*
X69093288Y-123725000D01*
X69326712Y-123725000D01*
X69555652Y-123679461D01*
X69771308Y-123590134D01*
X69965394Y-123460450D01*
X70130450Y-123295394D01*
X70260134Y-123101308D01*
X70349461Y-122885652D01*
X70395000Y-122656712D01*
X70395000Y-122423288D01*
X70349461Y-122194348D01*
X70260134Y-121978692D01*
X70130450Y-121784606D01*
X70083916Y-121738072D01*
X70310000Y-121738072D01*
X70434482Y-121725812D01*
X70554180Y-121689502D01*
X70664494Y-121630537D01*
X70761185Y-121551185D01*
X70826772Y-121471267D01*
X70830726Y-121481338D01*
X71044238Y-121586387D01*
X70994606Y-121619550D01*
X70829550Y-121784606D01*
X70699866Y-121978692D01*
X70610539Y-122194348D01*
X70565000Y-122423288D01*
X70565000Y-122656712D01*
X70610539Y-122885652D01*
X70699866Y-123101308D01*
X70829550Y-123295394D01*
X70994606Y-123460450D01*
X71188692Y-123590134D01*
X71404348Y-123679461D01*
X71633288Y-123725000D01*
X71866712Y-123725000D01*
X72095652Y-123679461D01*
X72311308Y-123590134D01*
X72505394Y-123460450D01*
X72670450Y-123295394D01*
X72800134Y-123101308D01*
X72889461Y-122885652D01*
X72935000Y-122656712D01*
X72935000Y-122423288D01*
X72889461Y-122194348D01*
X72800134Y-121978692D01*
X72670450Y-121784606D01*
X72505394Y-121619550D01*
X72461835Y-121590445D01*
X72470966Y-121587336D01*
X72669274Y-121481338D01*
X72777107Y-121206712D01*
X71750000Y-120179605D01*
X71735858Y-120193748D01*
X71556253Y-120014143D01*
X71570395Y-120000000D01*
X71929605Y-120000000D01*
X72956712Y-121027107D01*
X73231338Y-120919274D01*
X73382216Y-120612616D01*
X73470369Y-120282415D01*
X73492409Y-119941361D01*
X73447489Y-119602561D01*
X73337336Y-119279034D01*
X73231338Y-119080726D01*
X72956712Y-118972893D01*
X71929605Y-120000000D01*
X71570395Y-120000000D01*
X71556253Y-119985858D01*
X71735858Y-119806253D01*
X71750000Y-119820395D01*
X72777107Y-118793288D01*
X72669274Y-118518662D01*
X72362616Y-118367784D01*
X72032415Y-118279631D01*
X71691361Y-118257591D01*
X71352561Y-118302511D01*
X71029034Y-118412664D01*
X70830726Y-118518662D01*
X70826772Y-118528733D01*
X70761185Y-118448815D01*
X70664494Y-118369463D01*
X70554180Y-118310498D01*
X70434482Y-118274188D01*
X70310000Y-118261928D01*
X68110000Y-118261928D01*
X67985518Y-118274188D01*
X67865820Y-118310498D01*
X67755506Y-118369463D01*
X67658815Y-118448815D01*
X67579463Y-118545506D01*
X67520498Y-118655820D01*
X67484188Y-118775518D01*
X67471928Y-118900000D01*
X31734425Y-118900000D01*
X31751641Y-118876920D01*
X31876825Y-118614099D01*
X31921476Y-118466890D01*
X31800155Y-118237000D01*
X30607000Y-118237000D01*
X30607000Y-118257000D01*
X30353000Y-118257000D01*
X30353000Y-118237000D01*
X29159845Y-118237000D01*
X29038524Y-118466890D01*
X29083175Y-118614099D01*
X29208359Y-118876920D01*
X29382412Y-119110269D01*
X29598645Y-119305178D01*
X29715534Y-119374805D01*
X29533368Y-119496525D01*
X29326525Y-119703368D01*
X29164010Y-119946589D01*
X29052068Y-120216842D01*
X28995000Y-120503740D01*
X28995000Y-120796260D01*
X29052068Y-121083158D01*
X29164010Y-121353411D01*
X29326525Y-121596632D01*
X29533368Y-121803475D01*
X29707760Y-121920000D01*
X29533368Y-122036525D01*
X29326525Y-122243368D01*
X29164010Y-122486589D01*
X29052068Y-122756842D01*
X28995000Y-123043740D01*
X28995000Y-123336260D01*
X29052068Y-123623158D01*
X29164010Y-123893411D01*
X29326525Y-124136632D01*
X29458380Y-124268487D01*
X29385820Y-124290498D01*
X29275506Y-124349463D01*
X29178815Y-124428815D01*
X29099463Y-124525506D01*
X29040498Y-124635820D01*
X29004188Y-124755518D01*
X28991928Y-124880000D01*
X28127000Y-124880000D01*
X28127000Y-102723740D01*
X28995000Y-102723740D01*
X28995000Y-103016260D01*
X29052068Y-103303158D01*
X29164010Y-103573411D01*
X29326525Y-103816632D01*
X29533368Y-104023475D01*
X29707760Y-104140000D01*
X29533368Y-104256525D01*
X29326525Y-104463368D01*
X29164010Y-104706589D01*
X29052068Y-104976842D01*
X28995000Y-105263740D01*
X28995000Y-105556260D01*
X29052068Y-105843158D01*
X29164010Y-106113411D01*
X29326525Y-106356632D01*
X29533368Y-106563475D01*
X29707760Y-106680000D01*
X29533368Y-106796525D01*
X29326525Y-107003368D01*
X29164010Y-107246589D01*
X29052068Y-107516842D01*
X28995000Y-107803740D01*
X28995000Y-108096260D01*
X29052068Y-108383158D01*
X29164010Y-108653411D01*
X29326525Y-108896632D01*
X29533368Y-109103475D01*
X29707760Y-109220000D01*
X29533368Y-109336525D01*
X29326525Y-109543368D01*
X29164010Y-109786589D01*
X29052068Y-110056842D01*
X28995000Y-110343740D01*
X28995000Y-110636260D01*
X29052068Y-110923158D01*
X29164010Y-111193411D01*
X29326525Y-111436632D01*
X29533368Y-111643475D01*
X29707760Y-111760000D01*
X29533368Y-111876525D01*
X29326525Y-112083368D01*
X29164010Y-112326589D01*
X29052068Y-112596842D01*
X28995000Y-112883740D01*
X28995000Y-113176260D01*
X29052068Y-113463158D01*
X29164010Y-113733411D01*
X29326525Y-113976632D01*
X29533368Y-114183475D01*
X29707760Y-114300000D01*
X29533368Y-114416525D01*
X29326525Y-114623368D01*
X29164010Y-114866589D01*
X29052068Y-115136842D01*
X28995000Y-115423740D01*
X28995000Y-115716260D01*
X29052068Y-116003158D01*
X29164010Y-116273411D01*
X29326525Y-116516632D01*
X29533368Y-116723475D01*
X29715534Y-116845195D01*
X29598645Y-116914822D01*
X29382412Y-117109731D01*
X29208359Y-117343080D01*
X29083175Y-117605901D01*
X29038524Y-117753110D01*
X29159845Y-117983000D01*
X30353000Y-117983000D01*
X30353000Y-117963000D01*
X30607000Y-117963000D01*
X30607000Y-117983000D01*
X31800155Y-117983000D01*
X31921476Y-117753110D01*
X31876825Y-117605901D01*
X31751641Y-117343080D01*
X31577588Y-117109731D01*
X31361355Y-116914822D01*
X31244466Y-116845195D01*
X31426632Y-116723475D01*
X31633475Y-116516632D01*
X31795990Y-116273411D01*
X31907932Y-116003158D01*
X31954310Y-115770000D01*
X77251928Y-115770000D01*
X77251928Y-117470000D01*
X77264188Y-117594482D01*
X77300498Y-117714180D01*
X77359463Y-117824494D01*
X77438815Y-117921185D01*
X77535506Y-118000537D01*
X77645820Y-118059502D01*
X77765518Y-118095812D01*
X77890000Y-118108072D01*
X79590000Y-118108072D01*
X79714482Y-118095812D01*
X79834180Y-118059502D01*
X79944494Y-118000537D01*
X80041185Y-117921185D01*
X80120537Y-117824494D01*
X80179502Y-117714180D01*
X80215812Y-117594482D01*
X80228072Y-117470000D01*
X80228072Y-115770000D01*
X80215812Y-115645518D01*
X80179502Y-115525820D01*
X80120537Y-115415506D01*
X80041185Y-115318815D01*
X79944494Y-115239463D01*
X79834180Y-115180498D01*
X79761620Y-115158487D01*
X79893475Y-115026632D01*
X80055990Y-114783411D01*
X80167932Y-114513158D01*
X80225000Y-114226260D01*
X80225000Y-113933740D01*
X80167932Y-113646842D01*
X80055990Y-113376589D01*
X79893475Y-113133368D01*
X79686632Y-112926525D01*
X79512240Y-112810000D01*
X79686632Y-112693475D01*
X79893475Y-112486632D01*
X80055990Y-112243411D01*
X80167932Y-111973158D01*
X80225000Y-111686260D01*
X80225000Y-111393740D01*
X80167932Y-111106842D01*
X80055990Y-110836589D01*
X79893475Y-110593368D01*
X79686632Y-110386525D01*
X79512240Y-110270000D01*
X79686632Y-110153475D01*
X79893475Y-109946632D01*
X80055990Y-109703411D01*
X80167932Y-109433158D01*
X80225000Y-109146260D01*
X80225000Y-108853740D01*
X80167932Y-108566842D01*
X80055990Y-108296589D01*
X79893475Y-108053368D01*
X79686632Y-107846525D01*
X79512240Y-107730000D01*
X79686632Y-107613475D01*
X79893475Y-107406632D01*
X80055990Y-107163411D01*
X80167932Y-106893158D01*
X80225000Y-106606260D01*
X80225000Y-106313740D01*
X80167932Y-106026842D01*
X80055990Y-105756589D01*
X79893475Y-105513368D01*
X79686632Y-105306525D01*
X79512240Y-105190000D01*
X79686632Y-105073475D01*
X79893475Y-104866632D01*
X80055990Y-104623411D01*
X80167932Y-104353158D01*
X80225000Y-104066260D01*
X80225000Y-103773740D01*
X80167932Y-103486842D01*
X80055990Y-103216589D01*
X79893475Y-102973368D01*
X79686632Y-102766525D01*
X79504466Y-102644805D01*
X79621355Y-102575178D01*
X79837588Y-102380269D01*
X80011641Y-102146920D01*
X80136825Y-101884099D01*
X80181476Y-101736890D01*
X80060155Y-101507000D01*
X78867000Y-101507000D01*
X78867000Y-101527000D01*
X78613000Y-101527000D01*
X78613000Y-101507000D01*
X77419845Y-101507000D01*
X77298524Y-101736890D01*
X77343175Y-101884099D01*
X77468359Y-102146920D01*
X77642412Y-102380269D01*
X77858645Y-102575178D01*
X77975534Y-102644805D01*
X77793368Y-102766525D01*
X77586525Y-102973368D01*
X77424010Y-103216589D01*
X77312068Y-103486842D01*
X77255000Y-103773740D01*
X77255000Y-104066260D01*
X77312068Y-104353158D01*
X77424010Y-104623411D01*
X77586525Y-104866632D01*
X77793368Y-105073475D01*
X77967760Y-105190000D01*
X77793368Y-105306525D01*
X77586525Y-105513368D01*
X77424010Y-105756589D01*
X77312068Y-106026842D01*
X77255000Y-106313740D01*
X77255000Y-106606260D01*
X77312068Y-106893158D01*
X77424010Y-107163411D01*
X77586525Y-107406632D01*
X77793368Y-107613475D01*
X77967760Y-107730000D01*
X77793368Y-107846525D01*
X77586525Y-108053368D01*
X77424010Y-108296589D01*
X77312068Y-108566842D01*
X77255000Y-108853740D01*
X77255000Y-109146260D01*
X77312068Y-109433158D01*
X77424010Y-109703411D01*
X77586525Y-109946632D01*
X77793368Y-110153475D01*
X77967760Y-110270000D01*
X77793368Y-110386525D01*
X77586525Y-110593368D01*
X77424010Y-110836589D01*
X77312068Y-111106842D01*
X77255000Y-111393740D01*
X77255000Y-111686260D01*
X77312068Y-111973158D01*
X77424010Y-112243411D01*
X77586525Y-112486632D01*
X77793368Y-112693475D01*
X77967760Y-112810000D01*
X77793368Y-112926525D01*
X77586525Y-113133368D01*
X77424010Y-113376589D01*
X77312068Y-113646842D01*
X77255000Y-113933740D01*
X77255000Y-114226260D01*
X77312068Y-114513158D01*
X77424010Y-114783411D01*
X77586525Y-115026632D01*
X77718380Y-115158487D01*
X77645820Y-115180498D01*
X77535506Y-115239463D01*
X77438815Y-115318815D01*
X77359463Y-115415506D01*
X77300498Y-115525820D01*
X77264188Y-115645518D01*
X77251928Y-115770000D01*
X31954310Y-115770000D01*
X31965000Y-115716260D01*
X31965000Y-115423740D01*
X31907932Y-115136842D01*
X31795990Y-114866589D01*
X31633475Y-114623368D01*
X31426632Y-114416525D01*
X31252240Y-114300000D01*
X31426632Y-114183475D01*
X31633475Y-113976632D01*
X31795990Y-113733411D01*
X31907932Y-113463158D01*
X31965000Y-113176260D01*
X31965000Y-112883740D01*
X31907932Y-112596842D01*
X31795990Y-112326589D01*
X31633475Y-112083368D01*
X31426632Y-111876525D01*
X31252240Y-111760000D01*
X31426632Y-111643475D01*
X31633475Y-111436632D01*
X31795990Y-111193411D01*
X31907932Y-110923158D01*
X31965000Y-110636260D01*
X31965000Y-110343740D01*
X31907932Y-110056842D01*
X31795990Y-109786589D01*
X31633475Y-109543368D01*
X31426632Y-109336525D01*
X31252240Y-109220000D01*
X31426632Y-109103475D01*
X31633475Y-108896632D01*
X31795990Y-108653411D01*
X31822683Y-108588967D01*
X36225000Y-108588967D01*
X36225000Y-108911033D01*
X36287832Y-109226912D01*
X36411082Y-109524463D01*
X36590013Y-109792252D01*
X36817748Y-110019987D01*
X37085537Y-110198918D01*
X37383088Y-110322168D01*
X37698967Y-110385000D01*
X38021033Y-110385000D01*
X38336912Y-110322168D01*
X38634463Y-110198918D01*
X38902252Y-110019987D01*
X39129987Y-109792252D01*
X39308918Y-109524463D01*
X39432168Y-109226912D01*
X39495000Y-108911033D01*
X39495000Y-108588967D01*
X42725000Y-108588967D01*
X42725000Y-108911033D01*
X42787832Y-109226912D01*
X42911082Y-109524463D01*
X43090013Y-109792252D01*
X43317748Y-110019987D01*
X43585537Y-110198918D01*
X43883088Y-110322168D01*
X44198967Y-110385000D01*
X44521033Y-110385000D01*
X44836912Y-110322168D01*
X45134463Y-110198918D01*
X45402252Y-110019987D01*
X45629987Y-109792252D01*
X45808918Y-109524463D01*
X45932168Y-109226912D01*
X45995000Y-108911033D01*
X45995000Y-108588967D01*
X49725000Y-108588967D01*
X49725000Y-108911033D01*
X49787832Y-109226912D01*
X49911082Y-109524463D01*
X50090013Y-109792252D01*
X50317748Y-110019987D01*
X50585537Y-110198918D01*
X50883088Y-110322168D01*
X51198967Y-110385000D01*
X51521033Y-110385000D01*
X51836912Y-110322168D01*
X52134463Y-110198918D01*
X52402252Y-110019987D01*
X52629987Y-109792252D01*
X52808918Y-109524463D01*
X52932168Y-109226912D01*
X52995000Y-108911033D01*
X52995000Y-108588967D01*
X56225000Y-108588967D01*
X56225000Y-108911033D01*
X56287832Y-109226912D01*
X56411082Y-109524463D01*
X56590013Y-109792252D01*
X56817748Y-110019987D01*
X57085537Y-110198918D01*
X57383088Y-110322168D01*
X57698967Y-110385000D01*
X58021033Y-110385000D01*
X58336912Y-110322168D01*
X58634463Y-110198918D01*
X58902252Y-110019987D01*
X59129987Y-109792252D01*
X59308918Y-109524463D01*
X59432168Y-109226912D01*
X59495000Y-108911033D01*
X59495000Y-108588967D01*
X63225000Y-108588967D01*
X63225000Y-108911033D01*
X63287832Y-109226912D01*
X63411082Y-109524463D01*
X63590013Y-109792252D01*
X63817748Y-110019987D01*
X64085537Y-110198918D01*
X64383088Y-110322168D01*
X64698967Y-110385000D01*
X65021033Y-110385000D01*
X65336912Y-110322168D01*
X65634463Y-110198918D01*
X65902252Y-110019987D01*
X66129987Y-109792252D01*
X66308918Y-109524463D01*
X66432168Y-109226912D01*
X66495000Y-108911033D01*
X66495000Y-108588967D01*
X69725000Y-108588967D01*
X69725000Y-108911033D01*
X69787832Y-109226912D01*
X69911082Y-109524463D01*
X70090013Y-109792252D01*
X70317748Y-110019987D01*
X70585537Y-110198918D01*
X70883088Y-110322168D01*
X71198967Y-110385000D01*
X71521033Y-110385000D01*
X71836912Y-110322168D01*
X72134463Y-110198918D01*
X72402252Y-110019987D01*
X72629987Y-109792252D01*
X72808918Y-109524463D01*
X72932168Y-109226912D01*
X72995000Y-108911033D01*
X72995000Y-108588967D01*
X72932168Y-108273088D01*
X72808918Y-107975537D01*
X72629987Y-107707748D01*
X72402252Y-107480013D01*
X72134463Y-107301082D01*
X71836912Y-107177832D01*
X71521033Y-107115000D01*
X71198967Y-107115000D01*
X70883088Y-107177832D01*
X70585537Y-107301082D01*
X70317748Y-107480013D01*
X70090013Y-107707748D01*
X69911082Y-107975537D01*
X69787832Y-108273088D01*
X69725000Y-108588967D01*
X66495000Y-108588967D01*
X66432168Y-108273088D01*
X66308918Y-107975537D01*
X66129987Y-107707748D01*
X65902252Y-107480013D01*
X65634463Y-107301082D01*
X65336912Y-107177832D01*
X65021033Y-107115000D01*
X64698967Y-107115000D01*
X64383088Y-107177832D01*
X64085537Y-107301082D01*
X63817748Y-107480013D01*
X63590013Y-107707748D01*
X63411082Y-107975537D01*
X63287832Y-108273088D01*
X63225000Y-108588967D01*
X59495000Y-108588967D01*
X59432168Y-108273088D01*
X59308918Y-107975537D01*
X59129987Y-107707748D01*
X58902252Y-107480013D01*
X58634463Y-107301082D01*
X58336912Y-107177832D01*
X58021033Y-107115000D01*
X57698967Y-107115000D01*
X57383088Y-107177832D01*
X57085537Y-107301082D01*
X56817748Y-107480013D01*
X56590013Y-107707748D01*
X56411082Y-107975537D01*
X56287832Y-108273088D01*
X56225000Y-108588967D01*
X52995000Y-108588967D01*
X52932168Y-108273088D01*
X52808918Y-107975537D01*
X52629987Y-107707748D01*
X52402252Y-107480013D01*
X52134463Y-107301082D01*
X51836912Y-107177832D01*
X51521033Y-107115000D01*
X51198967Y-107115000D01*
X50883088Y-107177832D01*
X50585537Y-107301082D01*
X50317748Y-107480013D01*
X50090013Y-107707748D01*
X49911082Y-107975537D01*
X49787832Y-108273088D01*
X49725000Y-108588967D01*
X45995000Y-108588967D01*
X45932168Y-108273088D01*
X45808918Y-107975537D01*
X45629987Y-107707748D01*
X45402252Y-107480013D01*
X45134463Y-107301082D01*
X44836912Y-107177832D01*
X44521033Y-107115000D01*
X44198967Y-107115000D01*
X43883088Y-107177832D01*
X43585537Y-107301082D01*
X43317748Y-107480013D01*
X43090013Y-107707748D01*
X42911082Y-107975537D01*
X42787832Y-108273088D01*
X42725000Y-108588967D01*
X39495000Y-108588967D01*
X39432168Y-108273088D01*
X39308918Y-107975537D01*
X39129987Y-107707748D01*
X38902252Y-107480013D01*
X38634463Y-107301082D01*
X38336912Y-107177832D01*
X38021033Y-107115000D01*
X37698967Y-107115000D01*
X37383088Y-107177832D01*
X37085537Y-107301082D01*
X36817748Y-107480013D01*
X36590013Y-107707748D01*
X36411082Y-107975537D01*
X36287832Y-108273088D01*
X36225000Y-108588967D01*
X31822683Y-108588967D01*
X31907932Y-108383158D01*
X31965000Y-108096260D01*
X31965000Y-107803740D01*
X31907932Y-107516842D01*
X31795990Y-107246589D01*
X31633475Y-107003368D01*
X31426632Y-106796525D01*
X31252240Y-106680000D01*
X31426632Y-106563475D01*
X31633475Y-106356632D01*
X31795990Y-106113411D01*
X31907932Y-105843158D01*
X31965000Y-105556260D01*
X31965000Y-105385413D01*
X36904192Y-105385413D01*
X36999956Y-105649814D01*
X37289571Y-105790704D01*
X37601108Y-105872384D01*
X37922595Y-105891718D01*
X38241675Y-105847961D01*
X38546088Y-105742795D01*
X38720044Y-105649814D01*
X38815808Y-105385413D01*
X43404192Y-105385413D01*
X43499956Y-105649814D01*
X43789571Y-105790704D01*
X44101108Y-105872384D01*
X44422595Y-105891718D01*
X44741675Y-105847961D01*
X45046088Y-105742795D01*
X45220044Y-105649814D01*
X45315808Y-105385413D01*
X50404192Y-105385413D01*
X50499956Y-105649814D01*
X50789571Y-105790704D01*
X51101108Y-105872384D01*
X51422595Y-105891718D01*
X51741675Y-105847961D01*
X52046088Y-105742795D01*
X52220044Y-105649814D01*
X52315808Y-105385413D01*
X56904192Y-105385413D01*
X56999956Y-105649814D01*
X57289571Y-105790704D01*
X57601108Y-105872384D01*
X57922595Y-105891718D01*
X58241675Y-105847961D01*
X58546088Y-105742795D01*
X58720044Y-105649814D01*
X58815808Y-105385413D01*
X63904192Y-105385413D01*
X63999956Y-105649814D01*
X64289571Y-105790704D01*
X64601108Y-105872384D01*
X64922595Y-105891718D01*
X65241675Y-105847961D01*
X65546088Y-105742795D01*
X65720044Y-105649814D01*
X65815808Y-105385413D01*
X70404192Y-105385413D01*
X70499956Y-105649814D01*
X70789571Y-105790704D01*
X71101108Y-105872384D01*
X71422595Y-105891718D01*
X71741675Y-105847961D01*
X72046088Y-105742795D01*
X72220044Y-105649814D01*
X72315808Y-105385413D01*
X71360000Y-104429605D01*
X70404192Y-105385413D01*
X65815808Y-105385413D01*
X64860000Y-104429605D01*
X63904192Y-105385413D01*
X58815808Y-105385413D01*
X57860000Y-104429605D01*
X56904192Y-105385413D01*
X52315808Y-105385413D01*
X51360000Y-104429605D01*
X50404192Y-105385413D01*
X45315808Y-105385413D01*
X44360000Y-104429605D01*
X43404192Y-105385413D01*
X38815808Y-105385413D01*
X37860000Y-104429605D01*
X36904192Y-105385413D01*
X31965000Y-105385413D01*
X31965000Y-105263740D01*
X31907932Y-104976842D01*
X31795990Y-104706589D01*
X31633475Y-104463368D01*
X31482702Y-104312595D01*
X36218282Y-104312595D01*
X36262039Y-104631675D01*
X36367205Y-104936088D01*
X36460186Y-105110044D01*
X36724587Y-105205808D01*
X37680395Y-104250000D01*
X38039605Y-104250000D01*
X38995413Y-105205808D01*
X39259814Y-105110044D01*
X39400704Y-104820429D01*
X39482384Y-104508892D01*
X39494189Y-104312595D01*
X42718282Y-104312595D01*
X42762039Y-104631675D01*
X42867205Y-104936088D01*
X42960186Y-105110044D01*
X43224587Y-105205808D01*
X44180395Y-104250000D01*
X44539605Y-104250000D01*
X45495413Y-105205808D01*
X45759814Y-105110044D01*
X45900704Y-104820429D01*
X45982384Y-104508892D01*
X45994189Y-104312595D01*
X49718282Y-104312595D01*
X49762039Y-104631675D01*
X49867205Y-104936088D01*
X49960186Y-105110044D01*
X50224587Y-105205808D01*
X51180395Y-104250000D01*
X51539605Y-104250000D01*
X52495413Y-105205808D01*
X52759814Y-105110044D01*
X52900704Y-104820429D01*
X52982384Y-104508892D01*
X52994189Y-104312595D01*
X56218282Y-104312595D01*
X56262039Y-104631675D01*
X56367205Y-104936088D01*
X56460186Y-105110044D01*
X56724587Y-105205808D01*
X57680395Y-104250000D01*
X58039605Y-104250000D01*
X58995413Y-105205808D01*
X59259814Y-105110044D01*
X59400704Y-104820429D01*
X59482384Y-104508892D01*
X59494189Y-104312595D01*
X63218282Y-104312595D01*
X63262039Y-104631675D01*
X63367205Y-104936088D01*
X63460186Y-105110044D01*
X63724587Y-105205808D01*
X64680395Y-104250000D01*
X65039605Y-104250000D01*
X65995413Y-105205808D01*
X66259814Y-105110044D01*
X66400704Y-104820429D01*
X66482384Y-104508892D01*
X66494189Y-104312595D01*
X69718282Y-104312595D01*
X69762039Y-104631675D01*
X69867205Y-104936088D01*
X69960186Y-105110044D01*
X70224587Y-105205808D01*
X71180395Y-104250000D01*
X71539605Y-104250000D01*
X72495413Y-105205808D01*
X72759814Y-105110044D01*
X72900704Y-104820429D01*
X72982384Y-104508892D01*
X73001718Y-104187405D01*
X72957961Y-103868325D01*
X72852795Y-103563912D01*
X72759814Y-103389956D01*
X72495413Y-103294192D01*
X71539605Y-104250000D01*
X71180395Y-104250000D01*
X70224587Y-103294192D01*
X69960186Y-103389956D01*
X69819296Y-103679571D01*
X69737616Y-103991108D01*
X69718282Y-104312595D01*
X66494189Y-104312595D01*
X66501718Y-104187405D01*
X66457961Y-103868325D01*
X66352795Y-103563912D01*
X66259814Y-103389956D01*
X65995413Y-103294192D01*
X65039605Y-104250000D01*
X64680395Y-104250000D01*
X63724587Y-103294192D01*
X63460186Y-103389956D01*
X63319296Y-103679571D01*
X63237616Y-103991108D01*
X63218282Y-104312595D01*
X59494189Y-104312595D01*
X59501718Y-104187405D01*
X59457961Y-103868325D01*
X59352795Y-103563912D01*
X59259814Y-103389956D01*
X58995413Y-103294192D01*
X58039605Y-104250000D01*
X57680395Y-104250000D01*
X56724587Y-103294192D01*
X56460186Y-103389956D01*
X56319296Y-103679571D01*
X56237616Y-103991108D01*
X56218282Y-104312595D01*
X52994189Y-104312595D01*
X53001718Y-104187405D01*
X52957961Y-103868325D01*
X52852795Y-103563912D01*
X52759814Y-103389956D01*
X52495413Y-103294192D01*
X51539605Y-104250000D01*
X51180395Y-104250000D01*
X50224587Y-103294192D01*
X49960186Y-103389956D01*
X49819296Y-103679571D01*
X49737616Y-103991108D01*
X49718282Y-104312595D01*
X45994189Y-104312595D01*
X46001718Y-104187405D01*
X45957961Y-103868325D01*
X45852795Y-103563912D01*
X45759814Y-103389956D01*
X45495413Y-103294192D01*
X44539605Y-104250000D01*
X44180395Y-104250000D01*
X43224587Y-103294192D01*
X42960186Y-103389956D01*
X42819296Y-103679571D01*
X42737616Y-103991108D01*
X42718282Y-104312595D01*
X39494189Y-104312595D01*
X39501718Y-104187405D01*
X39457961Y-103868325D01*
X39352795Y-103563912D01*
X39259814Y-103389956D01*
X38995413Y-103294192D01*
X38039605Y-104250000D01*
X37680395Y-104250000D01*
X36724587Y-103294192D01*
X36460186Y-103389956D01*
X36319296Y-103679571D01*
X36237616Y-103991108D01*
X36218282Y-104312595D01*
X31482702Y-104312595D01*
X31426632Y-104256525D01*
X31252240Y-104140000D01*
X31426632Y-104023475D01*
X31633475Y-103816632D01*
X31795990Y-103573411D01*
X31907932Y-103303158D01*
X31945441Y-103114587D01*
X36904192Y-103114587D01*
X37860000Y-104070395D01*
X38815808Y-103114587D01*
X43404192Y-103114587D01*
X44360000Y-104070395D01*
X45315808Y-103114587D01*
X50404192Y-103114587D01*
X51360000Y-104070395D01*
X52315808Y-103114587D01*
X56904192Y-103114587D01*
X57860000Y-104070395D01*
X58815808Y-103114587D01*
X63904192Y-103114587D01*
X64860000Y-104070395D01*
X65815808Y-103114587D01*
X70404192Y-103114587D01*
X71360000Y-104070395D01*
X72315808Y-103114587D01*
X72220044Y-102850186D01*
X71930429Y-102709296D01*
X71618892Y-102627616D01*
X71297405Y-102608282D01*
X70978325Y-102652039D01*
X70673912Y-102757205D01*
X70499956Y-102850186D01*
X70404192Y-103114587D01*
X65815808Y-103114587D01*
X65720044Y-102850186D01*
X65430429Y-102709296D01*
X65118892Y-102627616D01*
X64797405Y-102608282D01*
X64478325Y-102652039D01*
X64173912Y-102757205D01*
X63999956Y-102850186D01*
X63904192Y-103114587D01*
X58815808Y-103114587D01*
X58720044Y-102850186D01*
X58430429Y-102709296D01*
X58118892Y-102627616D01*
X57797405Y-102608282D01*
X57478325Y-102652039D01*
X57173912Y-102757205D01*
X56999956Y-102850186D01*
X56904192Y-103114587D01*
X52315808Y-103114587D01*
X52220044Y-102850186D01*
X51930429Y-102709296D01*
X51618892Y-102627616D01*
X51297405Y-102608282D01*
X50978325Y-102652039D01*
X50673912Y-102757205D01*
X50499956Y-102850186D01*
X50404192Y-103114587D01*
X45315808Y-103114587D01*
X45220044Y-102850186D01*
X44930429Y-102709296D01*
X44618892Y-102627616D01*
X44297405Y-102608282D01*
X43978325Y-102652039D01*
X43673912Y-102757205D01*
X43499956Y-102850186D01*
X43404192Y-103114587D01*
X38815808Y-103114587D01*
X38720044Y-102850186D01*
X38430429Y-102709296D01*
X38118892Y-102627616D01*
X37797405Y-102608282D01*
X37478325Y-102652039D01*
X37173912Y-102757205D01*
X36999956Y-102850186D01*
X36904192Y-103114587D01*
X31945441Y-103114587D01*
X31965000Y-103016260D01*
X31965000Y-102723740D01*
X31907932Y-102436842D01*
X31795990Y-102166589D01*
X31633475Y-101923368D01*
X31426632Y-101716525D01*
X31183411Y-101554010D01*
X30913158Y-101442068D01*
X30626260Y-101385000D01*
X30333740Y-101385000D01*
X30046842Y-101442068D01*
X29776589Y-101554010D01*
X29533368Y-101716525D01*
X29326525Y-101923368D01*
X29164010Y-102166589D01*
X29052068Y-102436842D01*
X28995000Y-102723740D01*
X28127000Y-102723740D01*
X28127000Y-97960000D01*
X28991928Y-97960000D01*
X28991928Y-99660000D01*
X29004188Y-99784482D01*
X29040498Y-99904180D01*
X29099463Y-100014494D01*
X29178815Y-100111185D01*
X29275506Y-100190537D01*
X29385820Y-100249502D01*
X29505518Y-100285812D01*
X29630000Y-100298072D01*
X31330000Y-100298072D01*
X31454482Y-100285812D01*
X31574180Y-100249502D01*
X31684494Y-100190537D01*
X31781185Y-100111185D01*
X31860537Y-100014494D01*
X31919502Y-99904180D01*
X31955812Y-99784482D01*
X31968072Y-99660000D01*
X31968072Y-98693740D01*
X77255000Y-98693740D01*
X77255000Y-98986260D01*
X77312068Y-99273158D01*
X77424010Y-99543411D01*
X77586525Y-99786632D01*
X77793368Y-99993475D01*
X77975534Y-100115195D01*
X77858645Y-100184822D01*
X77642412Y-100379731D01*
X77468359Y-100613080D01*
X77343175Y-100875901D01*
X77298524Y-101023110D01*
X77419845Y-101253000D01*
X78613000Y-101253000D01*
X78613000Y-101233000D01*
X78867000Y-101233000D01*
X78867000Y-101253000D01*
X80060155Y-101253000D01*
X80181476Y-101023110D01*
X80136825Y-100875901D01*
X80011641Y-100613080D01*
X79837588Y-100379731D01*
X79621355Y-100184822D01*
X79504466Y-100115195D01*
X79686632Y-99993475D01*
X79893475Y-99786632D01*
X80055990Y-99543411D01*
X80167932Y-99273158D01*
X80225000Y-98986260D01*
X80225000Y-98693740D01*
X80167932Y-98406842D01*
X80055990Y-98136589D01*
X79893475Y-97893368D01*
X79686632Y-97686525D01*
X79443411Y-97524010D01*
X79173158Y-97412068D01*
X78886260Y-97355000D01*
X78593740Y-97355000D01*
X78306842Y-97412068D01*
X78036589Y-97524010D01*
X77793368Y-97686525D01*
X77586525Y-97893368D01*
X77424010Y-98136589D01*
X77312068Y-98406842D01*
X77255000Y-98693740D01*
X31968072Y-98693740D01*
X31968072Y-97960000D01*
X31955812Y-97835518D01*
X31919502Y-97715820D01*
X31860537Y-97605506D01*
X31781185Y-97508815D01*
X31684494Y-97429463D01*
X31574180Y-97370498D01*
X31501620Y-97348487D01*
X31633475Y-97216632D01*
X31795990Y-96973411D01*
X31907932Y-96703158D01*
X31965000Y-96416260D01*
X31965000Y-96123740D01*
X31907932Y-95836842D01*
X31795990Y-95566589D01*
X31633475Y-95323368D01*
X31426632Y-95116525D01*
X31252240Y-95000000D01*
X31426632Y-94883475D01*
X31633475Y-94676632D01*
X31795990Y-94433411D01*
X31907932Y-94163158D01*
X31965000Y-93876260D01*
X31965000Y-93583740D01*
X31907932Y-93296842D01*
X31795990Y-93026589D01*
X31718088Y-92910000D01*
X77251928Y-92910000D01*
X77251928Y-94610000D01*
X77264188Y-94734482D01*
X77300498Y-94854180D01*
X77359463Y-94964494D01*
X77438815Y-95061185D01*
X77535506Y-95140537D01*
X77645820Y-95199502D01*
X77765518Y-95235812D01*
X77890000Y-95248072D01*
X79590000Y-95248072D01*
X79714482Y-95235812D01*
X79834180Y-95199502D01*
X79944494Y-95140537D01*
X80041185Y-95061185D01*
X80120537Y-94964494D01*
X80179502Y-94854180D01*
X80215812Y-94734482D01*
X80228072Y-94610000D01*
X80228072Y-92910000D01*
X80215812Y-92785518D01*
X80179502Y-92665820D01*
X80120537Y-92555506D01*
X80041185Y-92458815D01*
X79944494Y-92379463D01*
X79834180Y-92320498D01*
X79761620Y-92298487D01*
X79893475Y-92166632D01*
X80055990Y-91923411D01*
X80167932Y-91653158D01*
X80225000Y-91366260D01*
X80225000Y-91073740D01*
X80167932Y-90786842D01*
X80055990Y-90516589D01*
X79893475Y-90273368D01*
X79686632Y-90066525D01*
X79512240Y-89950000D01*
X79686632Y-89833475D01*
X79893475Y-89626632D01*
X80055990Y-89383411D01*
X80167932Y-89113158D01*
X80225000Y-88826260D01*
X80225000Y-88533740D01*
X80167932Y-88246842D01*
X80055990Y-87976589D01*
X79893475Y-87733368D01*
X79686632Y-87526525D01*
X79512240Y-87410000D01*
X79686632Y-87293475D01*
X79893475Y-87086632D01*
X80055990Y-86843411D01*
X80167932Y-86573158D01*
X80225000Y-86286260D01*
X80225000Y-85993740D01*
X80167932Y-85706842D01*
X80055990Y-85436589D01*
X79893475Y-85193368D01*
X79686632Y-84986525D01*
X79512240Y-84870000D01*
X79686632Y-84753475D01*
X79893475Y-84546632D01*
X80055990Y-84303411D01*
X80167932Y-84033158D01*
X80225000Y-83746260D01*
X80225000Y-83453740D01*
X80167932Y-83166842D01*
X80055990Y-82896589D01*
X79893475Y-82653368D01*
X79686632Y-82446525D01*
X79512240Y-82330000D01*
X79686632Y-82213475D01*
X79893475Y-82006632D01*
X80055990Y-81763411D01*
X80167932Y-81493158D01*
X80225000Y-81206260D01*
X80225000Y-80913740D01*
X80167932Y-80626842D01*
X80055990Y-80356589D01*
X79893475Y-80113368D01*
X79686632Y-79906525D01*
X79443411Y-79744010D01*
X79173158Y-79632068D01*
X78886260Y-79575000D01*
X78593740Y-79575000D01*
X78306842Y-79632068D01*
X78036589Y-79744010D01*
X77793368Y-79906525D01*
X77586525Y-80113368D01*
X77424010Y-80356589D01*
X77312068Y-80626842D01*
X77255000Y-80913740D01*
X77255000Y-81206260D01*
X77312068Y-81493158D01*
X77424010Y-81763411D01*
X77586525Y-82006632D01*
X77793368Y-82213475D01*
X77967760Y-82330000D01*
X77793368Y-82446525D01*
X77586525Y-82653368D01*
X77424010Y-82896589D01*
X77312068Y-83166842D01*
X77255000Y-83453740D01*
X77255000Y-83746260D01*
X77312068Y-84033158D01*
X77424010Y-84303411D01*
X77586525Y-84546632D01*
X77793368Y-84753475D01*
X77967760Y-84870000D01*
X77793368Y-84986525D01*
X77586525Y-85193368D01*
X77424010Y-85436589D01*
X77312068Y-85706842D01*
X77255000Y-85993740D01*
X77255000Y-86286260D01*
X77312068Y-86573158D01*
X77424010Y-86843411D01*
X77586525Y-87086632D01*
X77793368Y-87293475D01*
X77967760Y-87410000D01*
X77793368Y-87526525D01*
X77586525Y-87733368D01*
X77424010Y-87976589D01*
X77312068Y-88246842D01*
X77255000Y-88533740D01*
X77255000Y-88826260D01*
X77312068Y-89113158D01*
X77424010Y-89383411D01*
X77586525Y-89626632D01*
X77793368Y-89833475D01*
X77967760Y-89950000D01*
X77793368Y-90066525D01*
X77586525Y-90273368D01*
X77424010Y-90516589D01*
X77312068Y-90786842D01*
X77255000Y-91073740D01*
X77255000Y-91366260D01*
X77312068Y-91653158D01*
X77424010Y-91923411D01*
X77586525Y-92166632D01*
X77718380Y-92298487D01*
X77645820Y-92320498D01*
X77535506Y-92379463D01*
X77438815Y-92458815D01*
X77359463Y-92555506D01*
X77300498Y-92665820D01*
X77264188Y-92785518D01*
X77251928Y-92910000D01*
X31718088Y-92910000D01*
X31633475Y-92783368D01*
X31426632Y-92576525D01*
X31252240Y-92460000D01*
X31426632Y-92343475D01*
X31633475Y-92136632D01*
X31795990Y-91893411D01*
X31907932Y-91623158D01*
X31965000Y-91336260D01*
X31965000Y-91043740D01*
X31907932Y-90756842D01*
X31795990Y-90486589D01*
X31633475Y-90243368D01*
X31426632Y-90036525D01*
X31252240Y-89920000D01*
X31426632Y-89803475D01*
X31633475Y-89596632D01*
X31795990Y-89353411D01*
X31907932Y-89083158D01*
X31965000Y-88796260D01*
X31965000Y-88503740D01*
X31907932Y-88216842D01*
X31795990Y-87946589D01*
X31633475Y-87703368D01*
X31426632Y-87496525D01*
X31252240Y-87380000D01*
X31426632Y-87263475D01*
X31633475Y-87056632D01*
X31795990Y-86813411D01*
X31907932Y-86543158D01*
X31965000Y-86256260D01*
X31965000Y-85963740D01*
X31907932Y-85676842D01*
X31795990Y-85406589D01*
X31633475Y-85163368D01*
X31426632Y-84956525D01*
X31252240Y-84840000D01*
X31426632Y-84723475D01*
X31633475Y-84516632D01*
X31795990Y-84273411D01*
X31907932Y-84003158D01*
X31965000Y-83716260D01*
X31965000Y-83423740D01*
X31907932Y-83136842D01*
X31795990Y-82866589D01*
X31633475Y-82623368D01*
X31426632Y-82416525D01*
X31252240Y-82300000D01*
X31426632Y-82183475D01*
X31633475Y-81976632D01*
X31795990Y-81733411D01*
X31907932Y-81463158D01*
X31965000Y-81176260D01*
X31965000Y-80883740D01*
X31907932Y-80596842D01*
X31795990Y-80326589D01*
X31633475Y-80083368D01*
X31426632Y-79876525D01*
X31183411Y-79714010D01*
X30913158Y-79602068D01*
X30626260Y-79545000D01*
X30333740Y-79545000D01*
X30046842Y-79602068D01*
X29776589Y-79714010D01*
X29533368Y-79876525D01*
X29326525Y-80083368D01*
X29164010Y-80326589D01*
X29052068Y-80596842D01*
X28995000Y-80883740D01*
X28995000Y-81176260D01*
X29052068Y-81463158D01*
X29164010Y-81733411D01*
X29326525Y-81976632D01*
X29533368Y-82183475D01*
X29707760Y-82300000D01*
X29533368Y-82416525D01*
X29326525Y-82623368D01*
X29164010Y-82866589D01*
X29052068Y-83136842D01*
X28995000Y-83423740D01*
X28995000Y-83716260D01*
X29052068Y-84003158D01*
X29164010Y-84273411D01*
X29326525Y-84516632D01*
X29533368Y-84723475D01*
X29707760Y-84840000D01*
X29533368Y-84956525D01*
X29326525Y-85163368D01*
X29164010Y-85406589D01*
X29052068Y-85676842D01*
X28995000Y-85963740D01*
X28995000Y-86256260D01*
X29052068Y-86543158D01*
X29164010Y-86813411D01*
X29326525Y-87056632D01*
X29533368Y-87263475D01*
X29707760Y-87380000D01*
X29533368Y-87496525D01*
X29326525Y-87703368D01*
X29164010Y-87946589D01*
X29052068Y-88216842D01*
X28995000Y-88503740D01*
X28995000Y-88796260D01*
X29052068Y-89083158D01*
X29164010Y-89353411D01*
X29326525Y-89596632D01*
X29533368Y-89803475D01*
X29707760Y-89920000D01*
X29533368Y-90036525D01*
X29326525Y-90243368D01*
X29164010Y-90486589D01*
X29052068Y-90756842D01*
X28995000Y-91043740D01*
X28995000Y-91336260D01*
X29052068Y-91623158D01*
X29164010Y-91893411D01*
X29326525Y-92136632D01*
X29533368Y-92343475D01*
X29707760Y-92460000D01*
X29533368Y-92576525D01*
X29326525Y-92783368D01*
X29164010Y-93026589D01*
X29052068Y-93296842D01*
X28995000Y-93583740D01*
X28995000Y-93876260D01*
X29052068Y-94163158D01*
X29164010Y-94433411D01*
X29326525Y-94676632D01*
X29533368Y-94883475D01*
X29707760Y-95000000D01*
X29533368Y-95116525D01*
X29326525Y-95323368D01*
X29164010Y-95566589D01*
X29052068Y-95836842D01*
X28995000Y-96123740D01*
X28995000Y-96416260D01*
X29052068Y-96703158D01*
X29164010Y-96973411D01*
X29326525Y-97216632D01*
X29458380Y-97348487D01*
X29385820Y-97370498D01*
X29275506Y-97429463D01*
X29178815Y-97508815D01*
X29099463Y-97605506D01*
X29040498Y-97715820D01*
X29004188Y-97835518D01*
X28991928Y-97960000D01*
X28127000Y-97960000D01*
X28127000Y-72150000D01*
X49321928Y-72150000D01*
X49321928Y-73850000D01*
X49334188Y-73974482D01*
X49370498Y-74094180D01*
X49429463Y-74204494D01*
X49508815Y-74301185D01*
X49605506Y-74380537D01*
X49715820Y-74439502D01*
X49835518Y-74475812D01*
X49960000Y-74488072D01*
X51660000Y-74488072D01*
X51784482Y-74475812D01*
X51904180Y-74439502D01*
X52014494Y-74380537D01*
X52111185Y-74301185D01*
X52190537Y-74204494D01*
X52249502Y-74094180D01*
X52273966Y-74013534D01*
X52349731Y-74097588D01*
X52583080Y-74271641D01*
X52845901Y-74396825D01*
X52993110Y-74441476D01*
X53223000Y-74320155D01*
X53223000Y-73127000D01*
X53203000Y-73127000D01*
X53203000Y-72873000D01*
X53223000Y-72873000D01*
X53223000Y-71679845D01*
X53477000Y-71679845D01*
X53477000Y-72873000D01*
X53497000Y-72873000D01*
X53497000Y-73127000D01*
X53477000Y-73127000D01*
X53477000Y-74320155D01*
X53706890Y-74441476D01*
X53854099Y-74396825D01*
X54116920Y-74271641D01*
X54350269Y-74097588D01*
X54545178Y-73881355D01*
X54614805Y-73764466D01*
X54736525Y-73946632D01*
X54943368Y-74153475D01*
X55186589Y-74315990D01*
X55456842Y-74427932D01*
X55743740Y-74485000D01*
X56036260Y-74485000D01*
X56323158Y-74427932D01*
X56593411Y-74315990D01*
X56836632Y-74153475D01*
X57043475Y-73946632D01*
X57160000Y-73772240D01*
X57276525Y-73946632D01*
X57483368Y-74153475D01*
X57726589Y-74315990D01*
X57996842Y-74427932D01*
X58283740Y-74485000D01*
X58576260Y-74485000D01*
X58863158Y-74427932D01*
X59133411Y-74315990D01*
X59376632Y-74153475D01*
X59583475Y-73946632D01*
X59745990Y-73703411D01*
X59857932Y-73433158D01*
X59915000Y-73146260D01*
X59915000Y-72853740D01*
X59857932Y-72566842D01*
X59745990Y-72296589D01*
X59583475Y-72053368D01*
X59376632Y-71846525D01*
X59133411Y-71684010D01*
X58863158Y-71572068D01*
X58576260Y-71515000D01*
X58283740Y-71515000D01*
X57996842Y-71572068D01*
X57726589Y-71684010D01*
X57483368Y-71846525D01*
X57276525Y-72053368D01*
X57160000Y-72227760D01*
X57043475Y-72053368D01*
X56836632Y-71846525D01*
X56593411Y-71684010D01*
X56323158Y-71572068D01*
X56036260Y-71515000D01*
X55743740Y-71515000D01*
X55456842Y-71572068D01*
X55186589Y-71684010D01*
X54943368Y-71846525D01*
X54736525Y-72053368D01*
X54614805Y-72235534D01*
X54545178Y-72118645D01*
X54350269Y-71902412D01*
X54116920Y-71728359D01*
X53854099Y-71603175D01*
X53706890Y-71558524D01*
X53477000Y-71679845D01*
X53223000Y-71679845D01*
X52993110Y-71558524D01*
X52845901Y-71603175D01*
X52583080Y-71728359D01*
X52349731Y-71902412D01*
X52273966Y-71986466D01*
X52249502Y-71905820D01*
X52190537Y-71795506D01*
X52111185Y-71698815D01*
X52014494Y-71619463D01*
X51904180Y-71560498D01*
X51784482Y-71524188D01*
X51660000Y-71511928D01*
X49960000Y-71511928D01*
X49835518Y-71524188D01*
X49715820Y-71560498D01*
X49605506Y-71619463D01*
X49508815Y-71698815D01*
X49429463Y-71795506D01*
X49370498Y-71905820D01*
X49334188Y-72025518D01*
X49321928Y-72150000D01*
X28127000Y-72150000D01*
X28127000Y-71127000D01*
X80873000Y-71127000D01*
X80873000Y-128873000D01*
%TA.AperFunction,Conductor*%
D17*
G36*
X80873000Y-128873000D02*
G01*
X28127000Y-128873000D01*
X28127000Y-124880000D01*
X28991928Y-124880000D01*
X28991928Y-126580000D01*
X29004188Y-126704482D01*
X29040498Y-126824180D01*
X29099463Y-126934494D01*
X29178815Y-127031185D01*
X29275506Y-127110537D01*
X29385820Y-127169502D01*
X29505518Y-127205812D01*
X29630000Y-127218072D01*
X31330000Y-127218072D01*
X31454482Y-127205812D01*
X31574180Y-127169502D01*
X31684494Y-127110537D01*
X31781185Y-127031185D01*
X31860537Y-126934494D01*
X31919502Y-126824180D01*
X31955812Y-126704482D01*
X31968072Y-126580000D01*
X31968072Y-124880000D01*
X31955812Y-124755518D01*
X31919502Y-124635820D01*
X31860537Y-124525506D01*
X31781185Y-124428815D01*
X31684494Y-124349463D01*
X31574180Y-124290498D01*
X31501620Y-124268487D01*
X31633475Y-124136632D01*
X31795990Y-123893411D01*
X31907932Y-123623158D01*
X31965000Y-123336260D01*
X31965000Y-123043740D01*
X31907932Y-122756842D01*
X31795990Y-122486589D01*
X31633475Y-122243368D01*
X31426632Y-122036525D01*
X31252240Y-121920000D01*
X31426632Y-121803475D01*
X31633475Y-121596632D01*
X31795990Y-121353411D01*
X31907932Y-121083158D01*
X31965000Y-120796260D01*
X31965000Y-120603740D01*
X51835000Y-120603740D01*
X51835000Y-120896260D01*
X51892068Y-121183158D01*
X52004010Y-121453411D01*
X52166525Y-121696632D01*
X52373368Y-121903475D01*
X52616589Y-122065990D01*
X52886842Y-122177932D01*
X53173740Y-122235000D01*
X53466260Y-122235000D01*
X53753158Y-122177932D01*
X54023411Y-122065990D01*
X54266632Y-121903475D01*
X54398487Y-121771620D01*
X54420498Y-121844180D01*
X54479463Y-121954494D01*
X54558815Y-122051185D01*
X54655506Y-122130537D01*
X54765820Y-122189502D01*
X54885518Y-122225812D01*
X55010000Y-122238072D01*
X55574250Y-122235000D01*
X55733000Y-122076250D01*
X55733000Y-120877000D01*
X55987000Y-120877000D01*
X55987000Y-122076250D01*
X56145750Y-122235000D01*
X56710000Y-122238072D01*
X56834482Y-122225812D01*
X56954180Y-122189502D01*
X57064494Y-122130537D01*
X57161185Y-122051185D01*
X57240537Y-121954494D01*
X57299502Y-121844180D01*
X57335812Y-121724482D01*
X57348072Y-121600000D01*
X57345000Y-121035750D01*
X57186250Y-120877000D01*
X55987000Y-120877000D01*
X55733000Y-120877000D01*
X55713000Y-120877000D01*
X55713000Y-120623000D01*
X55733000Y-120623000D01*
X55733000Y-119423750D01*
X55987000Y-119423750D01*
X55987000Y-120623000D01*
X57186250Y-120623000D01*
X57345000Y-120464250D01*
X57348072Y-119900000D01*
X57335812Y-119775518D01*
X57299502Y-119655820D01*
X57240537Y-119545506D01*
X57161185Y-119448815D01*
X57064494Y-119369463D01*
X56954180Y-119310498D01*
X56834482Y-119274188D01*
X56710000Y-119261928D01*
X56145750Y-119265000D01*
X55987000Y-119423750D01*
X55733000Y-119423750D01*
X55574250Y-119265000D01*
X55010000Y-119261928D01*
X54885518Y-119274188D01*
X54765820Y-119310498D01*
X54655506Y-119369463D01*
X54558815Y-119448815D01*
X54479463Y-119545506D01*
X54420498Y-119655820D01*
X54398487Y-119728380D01*
X54266632Y-119596525D01*
X54023411Y-119434010D01*
X53753158Y-119322068D01*
X53466260Y-119265000D01*
X53173740Y-119265000D01*
X52886842Y-119322068D01*
X52616589Y-119434010D01*
X52373368Y-119596525D01*
X52166525Y-119803368D01*
X52004010Y-120046589D01*
X51892068Y-120316842D01*
X51835000Y-120603740D01*
X31965000Y-120603740D01*
X31965000Y-120503740D01*
X31907932Y-120216842D01*
X31795990Y-119946589D01*
X31633475Y-119703368D01*
X31426632Y-119496525D01*
X31244466Y-119374805D01*
X31361355Y-119305178D01*
X31577588Y-119110269D01*
X31734425Y-118900000D01*
X67471928Y-118900000D01*
X67471928Y-121100000D01*
X67484188Y-121224482D01*
X67520498Y-121344180D01*
X67579463Y-121454494D01*
X67658815Y-121551185D01*
X67755506Y-121630537D01*
X67865820Y-121689502D01*
X67985518Y-121725812D01*
X68110000Y-121738072D01*
X68336084Y-121738072D01*
X68289550Y-121784606D01*
X68159866Y-121978692D01*
X68070539Y-122194348D01*
X68025000Y-122423288D01*
X68025000Y-122656712D01*
X68070539Y-122885652D01*
X68159866Y-123101308D01*
X68289550Y-123295394D01*
X68454606Y-123460450D01*
X68648692Y-123590134D01*
X68864348Y-123679461D01*
X69093288Y-123725000D01*
X69326712Y-123725000D01*
X69555652Y-123679461D01*
X69771308Y-123590134D01*
X69965394Y-123460450D01*
X70130450Y-123295394D01*
X70260134Y-123101308D01*
X70349461Y-122885652D01*
X70395000Y-122656712D01*
X70395000Y-122423288D01*
X70349461Y-122194348D01*
X70260134Y-121978692D01*
X70130450Y-121784606D01*
X70083916Y-121738072D01*
X70310000Y-121738072D01*
X70434482Y-121725812D01*
X70554180Y-121689502D01*
X70664494Y-121630537D01*
X70761185Y-121551185D01*
X70826772Y-121471267D01*
X70830726Y-121481338D01*
X71044238Y-121586387D01*
X70994606Y-121619550D01*
X70829550Y-121784606D01*
X70699866Y-121978692D01*
X70610539Y-122194348D01*
X70565000Y-122423288D01*
X70565000Y-122656712D01*
X70610539Y-122885652D01*
X70699866Y-123101308D01*
X70829550Y-123295394D01*
X70994606Y-123460450D01*
X71188692Y-123590134D01*
X71404348Y-123679461D01*
X71633288Y-123725000D01*
X71866712Y-123725000D01*
X72095652Y-123679461D01*
X72311308Y-123590134D01*
X72505394Y-123460450D01*
X72670450Y-123295394D01*
X72800134Y-123101308D01*
X72889461Y-122885652D01*
X72935000Y-122656712D01*
X72935000Y-122423288D01*
X72889461Y-122194348D01*
X72800134Y-121978692D01*
X72670450Y-121784606D01*
X72505394Y-121619550D01*
X72461835Y-121590445D01*
X72470966Y-121587336D01*
X72669274Y-121481338D01*
X72777107Y-121206712D01*
X71750000Y-120179605D01*
X71735858Y-120193748D01*
X71556253Y-120014143D01*
X71570395Y-120000000D01*
X71929605Y-120000000D01*
X72956712Y-121027107D01*
X73231338Y-120919274D01*
X73382216Y-120612616D01*
X73470369Y-120282415D01*
X73492409Y-119941361D01*
X73447489Y-119602561D01*
X73337336Y-119279034D01*
X73231338Y-119080726D01*
X72956712Y-118972893D01*
X71929605Y-120000000D01*
X71570395Y-120000000D01*
X71556253Y-119985858D01*
X71735858Y-119806253D01*
X71750000Y-119820395D01*
X72777107Y-118793288D01*
X72669274Y-118518662D01*
X72362616Y-118367784D01*
X72032415Y-118279631D01*
X71691361Y-118257591D01*
X71352561Y-118302511D01*
X71029034Y-118412664D01*
X70830726Y-118518662D01*
X70826772Y-118528733D01*
X70761185Y-118448815D01*
X70664494Y-118369463D01*
X70554180Y-118310498D01*
X70434482Y-118274188D01*
X70310000Y-118261928D01*
X68110000Y-118261928D01*
X67985518Y-118274188D01*
X67865820Y-118310498D01*
X67755506Y-118369463D01*
X67658815Y-118448815D01*
X67579463Y-118545506D01*
X67520498Y-118655820D01*
X67484188Y-118775518D01*
X67471928Y-118900000D01*
X31734425Y-118900000D01*
X31751641Y-118876920D01*
X31876825Y-118614099D01*
X31921476Y-118466890D01*
X31800155Y-118237000D01*
X30607000Y-118237000D01*
X30607000Y-118257000D01*
X30353000Y-118257000D01*
X30353000Y-118237000D01*
X29159845Y-118237000D01*
X29038524Y-118466890D01*
X29083175Y-118614099D01*
X29208359Y-118876920D01*
X29382412Y-119110269D01*
X29598645Y-119305178D01*
X29715534Y-119374805D01*
X29533368Y-119496525D01*
X29326525Y-119703368D01*
X29164010Y-119946589D01*
X29052068Y-120216842D01*
X28995000Y-120503740D01*
X28995000Y-120796260D01*
X29052068Y-121083158D01*
X29164010Y-121353411D01*
X29326525Y-121596632D01*
X29533368Y-121803475D01*
X29707760Y-121920000D01*
X29533368Y-122036525D01*
X29326525Y-122243368D01*
X29164010Y-122486589D01*
X29052068Y-122756842D01*
X28995000Y-123043740D01*
X28995000Y-123336260D01*
X29052068Y-123623158D01*
X29164010Y-123893411D01*
X29326525Y-124136632D01*
X29458380Y-124268487D01*
X29385820Y-124290498D01*
X29275506Y-124349463D01*
X29178815Y-124428815D01*
X29099463Y-124525506D01*
X29040498Y-124635820D01*
X29004188Y-124755518D01*
X28991928Y-124880000D01*
X28127000Y-124880000D01*
X28127000Y-102723740D01*
X28995000Y-102723740D01*
X28995000Y-103016260D01*
X29052068Y-103303158D01*
X29164010Y-103573411D01*
X29326525Y-103816632D01*
X29533368Y-104023475D01*
X29707760Y-104140000D01*
X29533368Y-104256525D01*
X29326525Y-104463368D01*
X29164010Y-104706589D01*
X29052068Y-104976842D01*
X28995000Y-105263740D01*
X28995000Y-105556260D01*
X29052068Y-105843158D01*
X29164010Y-106113411D01*
X29326525Y-106356632D01*
X29533368Y-106563475D01*
X29707760Y-106680000D01*
X29533368Y-106796525D01*
X29326525Y-107003368D01*
X29164010Y-107246589D01*
X29052068Y-107516842D01*
X28995000Y-107803740D01*
X28995000Y-108096260D01*
X29052068Y-108383158D01*
X29164010Y-108653411D01*
X29326525Y-108896632D01*
X29533368Y-109103475D01*
X29707760Y-109220000D01*
X29533368Y-109336525D01*
X29326525Y-109543368D01*
X29164010Y-109786589D01*
X29052068Y-110056842D01*
X28995000Y-110343740D01*
X28995000Y-110636260D01*
X29052068Y-110923158D01*
X29164010Y-111193411D01*
X29326525Y-111436632D01*
X29533368Y-111643475D01*
X29707760Y-111760000D01*
X29533368Y-111876525D01*
X29326525Y-112083368D01*
X29164010Y-112326589D01*
X29052068Y-112596842D01*
X28995000Y-112883740D01*
X28995000Y-113176260D01*
X29052068Y-113463158D01*
X29164010Y-113733411D01*
X29326525Y-113976632D01*
X29533368Y-114183475D01*
X29707760Y-114300000D01*
X29533368Y-114416525D01*
X29326525Y-114623368D01*
X29164010Y-114866589D01*
X29052068Y-115136842D01*
X28995000Y-115423740D01*
X28995000Y-115716260D01*
X29052068Y-116003158D01*
X29164010Y-116273411D01*
X29326525Y-116516632D01*
X29533368Y-116723475D01*
X29715534Y-116845195D01*
X29598645Y-116914822D01*
X29382412Y-117109731D01*
X29208359Y-117343080D01*
X29083175Y-117605901D01*
X29038524Y-117753110D01*
X29159845Y-117983000D01*
X30353000Y-117983000D01*
X30353000Y-117963000D01*
X30607000Y-117963000D01*
X30607000Y-117983000D01*
X31800155Y-117983000D01*
X31921476Y-117753110D01*
X31876825Y-117605901D01*
X31751641Y-117343080D01*
X31577588Y-117109731D01*
X31361355Y-116914822D01*
X31244466Y-116845195D01*
X31426632Y-116723475D01*
X31633475Y-116516632D01*
X31795990Y-116273411D01*
X31907932Y-116003158D01*
X31954310Y-115770000D01*
X77251928Y-115770000D01*
X77251928Y-117470000D01*
X77264188Y-117594482D01*
X77300498Y-117714180D01*
X77359463Y-117824494D01*
X77438815Y-117921185D01*
X77535506Y-118000537D01*
X77645820Y-118059502D01*
X77765518Y-118095812D01*
X77890000Y-118108072D01*
X79590000Y-118108072D01*
X79714482Y-118095812D01*
X79834180Y-118059502D01*
X79944494Y-118000537D01*
X80041185Y-117921185D01*
X80120537Y-117824494D01*
X80179502Y-117714180D01*
X80215812Y-117594482D01*
X80228072Y-117470000D01*
X80228072Y-115770000D01*
X80215812Y-115645518D01*
X80179502Y-115525820D01*
X80120537Y-115415506D01*
X80041185Y-115318815D01*
X79944494Y-115239463D01*
X79834180Y-115180498D01*
X79761620Y-115158487D01*
X79893475Y-115026632D01*
X80055990Y-114783411D01*
X80167932Y-114513158D01*
X80225000Y-114226260D01*
X80225000Y-113933740D01*
X80167932Y-113646842D01*
X80055990Y-113376589D01*
X79893475Y-113133368D01*
X79686632Y-112926525D01*
X79512240Y-112810000D01*
X79686632Y-112693475D01*
X79893475Y-112486632D01*
X80055990Y-112243411D01*
X80167932Y-111973158D01*
X80225000Y-111686260D01*
X80225000Y-111393740D01*
X80167932Y-111106842D01*
X80055990Y-110836589D01*
X79893475Y-110593368D01*
X79686632Y-110386525D01*
X79512240Y-110270000D01*
X79686632Y-110153475D01*
X79893475Y-109946632D01*
X80055990Y-109703411D01*
X80167932Y-109433158D01*
X80225000Y-109146260D01*
X80225000Y-108853740D01*
X80167932Y-108566842D01*
X80055990Y-108296589D01*
X79893475Y-108053368D01*
X79686632Y-107846525D01*
X79512240Y-107730000D01*
X79686632Y-107613475D01*
X79893475Y-107406632D01*
X80055990Y-107163411D01*
X80167932Y-106893158D01*
X80225000Y-106606260D01*
X80225000Y-106313740D01*
X80167932Y-106026842D01*
X80055990Y-105756589D01*
X79893475Y-105513368D01*
X79686632Y-105306525D01*
X79512240Y-105190000D01*
X79686632Y-105073475D01*
X79893475Y-104866632D01*
X80055990Y-104623411D01*
X80167932Y-104353158D01*
X80225000Y-104066260D01*
X80225000Y-103773740D01*
X80167932Y-103486842D01*
X80055990Y-103216589D01*
X79893475Y-102973368D01*
X79686632Y-102766525D01*
X79504466Y-102644805D01*
X79621355Y-102575178D01*
X79837588Y-102380269D01*
X80011641Y-102146920D01*
X80136825Y-101884099D01*
X80181476Y-101736890D01*
X80060155Y-101507000D01*
X78867000Y-101507000D01*
X78867000Y-101527000D01*
X78613000Y-101527000D01*
X78613000Y-101507000D01*
X77419845Y-101507000D01*
X77298524Y-101736890D01*
X77343175Y-101884099D01*
X77468359Y-102146920D01*
X77642412Y-102380269D01*
X77858645Y-102575178D01*
X77975534Y-102644805D01*
X77793368Y-102766525D01*
X77586525Y-102973368D01*
X77424010Y-103216589D01*
X77312068Y-103486842D01*
X77255000Y-103773740D01*
X77255000Y-104066260D01*
X77312068Y-104353158D01*
X77424010Y-104623411D01*
X77586525Y-104866632D01*
X77793368Y-105073475D01*
X77967760Y-105190000D01*
X77793368Y-105306525D01*
X77586525Y-105513368D01*
X77424010Y-105756589D01*
X77312068Y-106026842D01*
X77255000Y-106313740D01*
X77255000Y-106606260D01*
X77312068Y-106893158D01*
X77424010Y-107163411D01*
X77586525Y-107406632D01*
X77793368Y-107613475D01*
X77967760Y-107730000D01*
X77793368Y-107846525D01*
X77586525Y-108053368D01*
X77424010Y-108296589D01*
X77312068Y-108566842D01*
X77255000Y-108853740D01*
X77255000Y-109146260D01*
X77312068Y-109433158D01*
X77424010Y-109703411D01*
X77586525Y-109946632D01*
X77793368Y-110153475D01*
X77967760Y-110270000D01*
X77793368Y-110386525D01*
X77586525Y-110593368D01*
X77424010Y-110836589D01*
X77312068Y-111106842D01*
X77255000Y-111393740D01*
X77255000Y-111686260D01*
X77312068Y-111973158D01*
X77424010Y-112243411D01*
X77586525Y-112486632D01*
X77793368Y-112693475D01*
X77967760Y-112810000D01*
X77793368Y-112926525D01*
X77586525Y-113133368D01*
X77424010Y-113376589D01*
X77312068Y-113646842D01*
X77255000Y-113933740D01*
X77255000Y-114226260D01*
X77312068Y-114513158D01*
X77424010Y-114783411D01*
X77586525Y-115026632D01*
X77718380Y-115158487D01*
X77645820Y-115180498D01*
X77535506Y-115239463D01*
X77438815Y-115318815D01*
X77359463Y-115415506D01*
X77300498Y-115525820D01*
X77264188Y-115645518D01*
X77251928Y-115770000D01*
X31954310Y-115770000D01*
X31965000Y-115716260D01*
X31965000Y-115423740D01*
X31907932Y-115136842D01*
X31795990Y-114866589D01*
X31633475Y-114623368D01*
X31426632Y-114416525D01*
X31252240Y-114300000D01*
X31426632Y-114183475D01*
X31633475Y-113976632D01*
X31795990Y-113733411D01*
X31907932Y-113463158D01*
X31965000Y-113176260D01*
X31965000Y-112883740D01*
X31907932Y-112596842D01*
X31795990Y-112326589D01*
X31633475Y-112083368D01*
X31426632Y-111876525D01*
X31252240Y-111760000D01*
X31426632Y-111643475D01*
X31633475Y-111436632D01*
X31795990Y-111193411D01*
X31907932Y-110923158D01*
X31965000Y-110636260D01*
X31965000Y-110343740D01*
X31907932Y-110056842D01*
X31795990Y-109786589D01*
X31633475Y-109543368D01*
X31426632Y-109336525D01*
X31252240Y-109220000D01*
X31426632Y-109103475D01*
X31633475Y-108896632D01*
X31795990Y-108653411D01*
X31822683Y-108588967D01*
X36225000Y-108588967D01*
X36225000Y-108911033D01*
X36287832Y-109226912D01*
X36411082Y-109524463D01*
X36590013Y-109792252D01*
X36817748Y-110019987D01*
X37085537Y-110198918D01*
X37383088Y-110322168D01*
X37698967Y-110385000D01*
X38021033Y-110385000D01*
X38336912Y-110322168D01*
X38634463Y-110198918D01*
X38902252Y-110019987D01*
X39129987Y-109792252D01*
X39308918Y-109524463D01*
X39432168Y-109226912D01*
X39495000Y-108911033D01*
X39495000Y-108588967D01*
X42725000Y-108588967D01*
X42725000Y-108911033D01*
X42787832Y-109226912D01*
X42911082Y-109524463D01*
X43090013Y-109792252D01*
X43317748Y-110019987D01*
X43585537Y-110198918D01*
X43883088Y-110322168D01*
X44198967Y-110385000D01*
X44521033Y-110385000D01*
X44836912Y-110322168D01*
X45134463Y-110198918D01*
X45402252Y-110019987D01*
X45629987Y-109792252D01*
X45808918Y-109524463D01*
X45932168Y-109226912D01*
X45995000Y-108911033D01*
X45995000Y-108588967D01*
X49725000Y-108588967D01*
X49725000Y-108911033D01*
X49787832Y-109226912D01*
X49911082Y-109524463D01*
X50090013Y-109792252D01*
X50317748Y-110019987D01*
X50585537Y-110198918D01*
X50883088Y-110322168D01*
X51198967Y-110385000D01*
X51521033Y-110385000D01*
X51836912Y-110322168D01*
X52134463Y-110198918D01*
X52402252Y-110019987D01*
X52629987Y-109792252D01*
X52808918Y-109524463D01*
X52932168Y-109226912D01*
X52995000Y-108911033D01*
X52995000Y-108588967D01*
X56225000Y-108588967D01*
X56225000Y-108911033D01*
X56287832Y-109226912D01*
X56411082Y-109524463D01*
X56590013Y-109792252D01*
X56817748Y-110019987D01*
X57085537Y-110198918D01*
X57383088Y-110322168D01*
X57698967Y-110385000D01*
X58021033Y-110385000D01*
X58336912Y-110322168D01*
X58634463Y-110198918D01*
X58902252Y-110019987D01*
X59129987Y-109792252D01*
X59308918Y-109524463D01*
X59432168Y-109226912D01*
X59495000Y-108911033D01*
X59495000Y-108588967D01*
X63225000Y-108588967D01*
X63225000Y-108911033D01*
X63287832Y-109226912D01*
X63411082Y-109524463D01*
X63590013Y-109792252D01*
X63817748Y-110019987D01*
X64085537Y-110198918D01*
X64383088Y-110322168D01*
X64698967Y-110385000D01*
X65021033Y-110385000D01*
X65336912Y-110322168D01*
X65634463Y-110198918D01*
X65902252Y-110019987D01*
X66129987Y-109792252D01*
X66308918Y-109524463D01*
X66432168Y-109226912D01*
X66495000Y-108911033D01*
X66495000Y-108588967D01*
X69725000Y-108588967D01*
X69725000Y-108911033D01*
X69787832Y-109226912D01*
X69911082Y-109524463D01*
X70090013Y-109792252D01*
X70317748Y-110019987D01*
X70585537Y-110198918D01*
X70883088Y-110322168D01*
X71198967Y-110385000D01*
X71521033Y-110385000D01*
X71836912Y-110322168D01*
X72134463Y-110198918D01*
X72402252Y-110019987D01*
X72629987Y-109792252D01*
X72808918Y-109524463D01*
X72932168Y-109226912D01*
X72995000Y-108911033D01*
X72995000Y-108588967D01*
X72932168Y-108273088D01*
X72808918Y-107975537D01*
X72629987Y-107707748D01*
X72402252Y-107480013D01*
X72134463Y-107301082D01*
X71836912Y-107177832D01*
X71521033Y-107115000D01*
X71198967Y-107115000D01*
X70883088Y-107177832D01*
X70585537Y-107301082D01*
X70317748Y-107480013D01*
X70090013Y-107707748D01*
X69911082Y-107975537D01*
X69787832Y-108273088D01*
X69725000Y-108588967D01*
X66495000Y-108588967D01*
X66432168Y-108273088D01*
X66308918Y-107975537D01*
X66129987Y-107707748D01*
X65902252Y-107480013D01*
X65634463Y-107301082D01*
X65336912Y-107177832D01*
X65021033Y-107115000D01*
X64698967Y-107115000D01*
X64383088Y-107177832D01*
X64085537Y-107301082D01*
X63817748Y-107480013D01*
X63590013Y-107707748D01*
X63411082Y-107975537D01*
X63287832Y-108273088D01*
X63225000Y-108588967D01*
X59495000Y-108588967D01*
X59432168Y-108273088D01*
X59308918Y-107975537D01*
X59129987Y-107707748D01*
X58902252Y-107480013D01*
X58634463Y-107301082D01*
X58336912Y-107177832D01*
X58021033Y-107115000D01*
X57698967Y-107115000D01*
X57383088Y-107177832D01*
X57085537Y-107301082D01*
X56817748Y-107480013D01*
X56590013Y-107707748D01*
X56411082Y-107975537D01*
X56287832Y-108273088D01*
X56225000Y-108588967D01*
X52995000Y-108588967D01*
X52932168Y-108273088D01*
X52808918Y-107975537D01*
X52629987Y-107707748D01*
X52402252Y-107480013D01*
X52134463Y-107301082D01*
X51836912Y-107177832D01*
X51521033Y-107115000D01*
X51198967Y-107115000D01*
X50883088Y-107177832D01*
X50585537Y-107301082D01*
X50317748Y-107480013D01*
X50090013Y-107707748D01*
X49911082Y-107975537D01*
X49787832Y-108273088D01*
X49725000Y-108588967D01*
X45995000Y-108588967D01*
X45932168Y-108273088D01*
X45808918Y-107975537D01*
X45629987Y-107707748D01*
X45402252Y-107480013D01*
X45134463Y-107301082D01*
X44836912Y-107177832D01*
X44521033Y-107115000D01*
X44198967Y-107115000D01*
X43883088Y-107177832D01*
X43585537Y-107301082D01*
X43317748Y-107480013D01*
X43090013Y-107707748D01*
X42911082Y-107975537D01*
X42787832Y-108273088D01*
X42725000Y-108588967D01*
X39495000Y-108588967D01*
X39432168Y-108273088D01*
X39308918Y-107975537D01*
X39129987Y-107707748D01*
X38902252Y-107480013D01*
X38634463Y-107301082D01*
X38336912Y-107177832D01*
X38021033Y-107115000D01*
X37698967Y-107115000D01*
X37383088Y-107177832D01*
X37085537Y-107301082D01*
X36817748Y-107480013D01*
X36590013Y-107707748D01*
X36411082Y-107975537D01*
X36287832Y-108273088D01*
X36225000Y-108588967D01*
X31822683Y-108588967D01*
X31907932Y-108383158D01*
X31965000Y-108096260D01*
X31965000Y-107803740D01*
X31907932Y-107516842D01*
X31795990Y-107246589D01*
X31633475Y-107003368D01*
X31426632Y-106796525D01*
X31252240Y-106680000D01*
X31426632Y-106563475D01*
X31633475Y-106356632D01*
X31795990Y-106113411D01*
X31907932Y-105843158D01*
X31965000Y-105556260D01*
X31965000Y-105385413D01*
X36904192Y-105385413D01*
X36999956Y-105649814D01*
X37289571Y-105790704D01*
X37601108Y-105872384D01*
X37922595Y-105891718D01*
X38241675Y-105847961D01*
X38546088Y-105742795D01*
X38720044Y-105649814D01*
X38815808Y-105385413D01*
X43404192Y-105385413D01*
X43499956Y-105649814D01*
X43789571Y-105790704D01*
X44101108Y-105872384D01*
X44422595Y-105891718D01*
X44741675Y-105847961D01*
X45046088Y-105742795D01*
X45220044Y-105649814D01*
X45315808Y-105385413D01*
X50404192Y-105385413D01*
X50499956Y-105649814D01*
X50789571Y-105790704D01*
X51101108Y-105872384D01*
X51422595Y-105891718D01*
X51741675Y-105847961D01*
X52046088Y-105742795D01*
X52220044Y-105649814D01*
X52315808Y-105385413D01*
X56904192Y-105385413D01*
X56999956Y-105649814D01*
X57289571Y-105790704D01*
X57601108Y-105872384D01*
X57922595Y-105891718D01*
X58241675Y-105847961D01*
X58546088Y-105742795D01*
X58720044Y-105649814D01*
X58815808Y-105385413D01*
X63904192Y-105385413D01*
X63999956Y-105649814D01*
X64289571Y-105790704D01*
X64601108Y-105872384D01*
X64922595Y-105891718D01*
X65241675Y-105847961D01*
X65546088Y-105742795D01*
X65720044Y-105649814D01*
X65815808Y-105385413D01*
X70404192Y-105385413D01*
X70499956Y-105649814D01*
X70789571Y-105790704D01*
X71101108Y-105872384D01*
X71422595Y-105891718D01*
X71741675Y-105847961D01*
X72046088Y-105742795D01*
X72220044Y-105649814D01*
X72315808Y-105385413D01*
X71360000Y-104429605D01*
X70404192Y-105385413D01*
X65815808Y-105385413D01*
X64860000Y-104429605D01*
X63904192Y-105385413D01*
X58815808Y-105385413D01*
X57860000Y-104429605D01*
X56904192Y-105385413D01*
X52315808Y-105385413D01*
X51360000Y-104429605D01*
X50404192Y-105385413D01*
X45315808Y-105385413D01*
X44360000Y-104429605D01*
X43404192Y-105385413D01*
X38815808Y-105385413D01*
X37860000Y-104429605D01*
X36904192Y-105385413D01*
X31965000Y-105385413D01*
X31965000Y-105263740D01*
X31907932Y-104976842D01*
X31795990Y-104706589D01*
X31633475Y-104463368D01*
X31482702Y-104312595D01*
X36218282Y-104312595D01*
X36262039Y-104631675D01*
X36367205Y-104936088D01*
X36460186Y-105110044D01*
X36724587Y-105205808D01*
X37680395Y-104250000D01*
X38039605Y-104250000D01*
X38995413Y-105205808D01*
X39259814Y-105110044D01*
X39400704Y-104820429D01*
X39482384Y-104508892D01*
X39494189Y-104312595D01*
X42718282Y-104312595D01*
X42762039Y-104631675D01*
X42867205Y-104936088D01*
X42960186Y-105110044D01*
X43224587Y-105205808D01*
X44180395Y-104250000D01*
X44539605Y-104250000D01*
X45495413Y-105205808D01*
X45759814Y-105110044D01*
X45900704Y-104820429D01*
X45982384Y-104508892D01*
X45994189Y-104312595D01*
X49718282Y-104312595D01*
X49762039Y-104631675D01*
X49867205Y-104936088D01*
X49960186Y-105110044D01*
X50224587Y-105205808D01*
X51180395Y-104250000D01*
X51539605Y-104250000D01*
X52495413Y-105205808D01*
X52759814Y-105110044D01*
X52900704Y-104820429D01*
X52982384Y-104508892D01*
X52994189Y-104312595D01*
X56218282Y-104312595D01*
X56262039Y-104631675D01*
X56367205Y-104936088D01*
X56460186Y-105110044D01*
X56724587Y-105205808D01*
X57680395Y-104250000D01*
X58039605Y-104250000D01*
X58995413Y-105205808D01*
X59259814Y-105110044D01*
X59400704Y-104820429D01*
X59482384Y-104508892D01*
X59494189Y-104312595D01*
X63218282Y-104312595D01*
X63262039Y-104631675D01*
X63367205Y-104936088D01*
X63460186Y-105110044D01*
X63724587Y-105205808D01*
X64680395Y-104250000D01*
X65039605Y-104250000D01*
X65995413Y-105205808D01*
X66259814Y-105110044D01*
X66400704Y-104820429D01*
X66482384Y-104508892D01*
X66494189Y-104312595D01*
X69718282Y-104312595D01*
X69762039Y-104631675D01*
X69867205Y-104936088D01*
X69960186Y-105110044D01*
X70224587Y-105205808D01*
X71180395Y-104250000D01*
X71539605Y-104250000D01*
X72495413Y-105205808D01*
X72759814Y-105110044D01*
X72900704Y-104820429D01*
X72982384Y-104508892D01*
X73001718Y-104187405D01*
X72957961Y-103868325D01*
X72852795Y-103563912D01*
X72759814Y-103389956D01*
X72495413Y-103294192D01*
X71539605Y-104250000D01*
X71180395Y-104250000D01*
X70224587Y-103294192D01*
X69960186Y-103389956D01*
X69819296Y-103679571D01*
X69737616Y-103991108D01*
X69718282Y-104312595D01*
X66494189Y-104312595D01*
X66501718Y-104187405D01*
X66457961Y-103868325D01*
X66352795Y-103563912D01*
X66259814Y-103389956D01*
X65995413Y-103294192D01*
X65039605Y-104250000D01*
X64680395Y-104250000D01*
X63724587Y-103294192D01*
X63460186Y-103389956D01*
X63319296Y-103679571D01*
X63237616Y-103991108D01*
X63218282Y-104312595D01*
X59494189Y-104312595D01*
X59501718Y-104187405D01*
X59457961Y-103868325D01*
X59352795Y-103563912D01*
X59259814Y-103389956D01*
X58995413Y-103294192D01*
X58039605Y-104250000D01*
X57680395Y-104250000D01*
X56724587Y-103294192D01*
X56460186Y-103389956D01*
X56319296Y-103679571D01*
X56237616Y-103991108D01*
X56218282Y-104312595D01*
X52994189Y-104312595D01*
X53001718Y-104187405D01*
X52957961Y-103868325D01*
X52852795Y-103563912D01*
X52759814Y-103389956D01*
X52495413Y-103294192D01*
X51539605Y-104250000D01*
X51180395Y-104250000D01*
X50224587Y-103294192D01*
X49960186Y-103389956D01*
X49819296Y-103679571D01*
X49737616Y-103991108D01*
X49718282Y-104312595D01*
X45994189Y-104312595D01*
X46001718Y-104187405D01*
X45957961Y-103868325D01*
X45852795Y-103563912D01*
X45759814Y-103389956D01*
X45495413Y-103294192D01*
X44539605Y-104250000D01*
X44180395Y-104250000D01*
X43224587Y-103294192D01*
X42960186Y-103389956D01*
X42819296Y-103679571D01*
X42737616Y-103991108D01*
X42718282Y-104312595D01*
X39494189Y-104312595D01*
X39501718Y-104187405D01*
X39457961Y-103868325D01*
X39352795Y-103563912D01*
X39259814Y-103389956D01*
X38995413Y-103294192D01*
X38039605Y-104250000D01*
X37680395Y-104250000D01*
X36724587Y-103294192D01*
X36460186Y-103389956D01*
X36319296Y-103679571D01*
X36237616Y-103991108D01*
X36218282Y-104312595D01*
X31482702Y-104312595D01*
X31426632Y-104256525D01*
X31252240Y-104140000D01*
X31426632Y-104023475D01*
X31633475Y-103816632D01*
X31795990Y-103573411D01*
X31907932Y-103303158D01*
X31945441Y-103114587D01*
X36904192Y-103114587D01*
X37860000Y-104070395D01*
X38815808Y-103114587D01*
X43404192Y-103114587D01*
X44360000Y-104070395D01*
X45315808Y-103114587D01*
X50404192Y-103114587D01*
X51360000Y-104070395D01*
X52315808Y-103114587D01*
X56904192Y-103114587D01*
X57860000Y-104070395D01*
X58815808Y-103114587D01*
X63904192Y-103114587D01*
X64860000Y-104070395D01*
X65815808Y-103114587D01*
X70404192Y-103114587D01*
X71360000Y-104070395D01*
X72315808Y-103114587D01*
X72220044Y-102850186D01*
X71930429Y-102709296D01*
X71618892Y-102627616D01*
X71297405Y-102608282D01*
X70978325Y-102652039D01*
X70673912Y-102757205D01*
X70499956Y-102850186D01*
X70404192Y-103114587D01*
X65815808Y-103114587D01*
X65720044Y-102850186D01*
X65430429Y-102709296D01*
X65118892Y-102627616D01*
X64797405Y-102608282D01*
X64478325Y-102652039D01*
X64173912Y-102757205D01*
X63999956Y-102850186D01*
X63904192Y-103114587D01*
X58815808Y-103114587D01*
X58720044Y-102850186D01*
X58430429Y-102709296D01*
X58118892Y-102627616D01*
X57797405Y-102608282D01*
X57478325Y-102652039D01*
X57173912Y-102757205D01*
X56999956Y-102850186D01*
X56904192Y-103114587D01*
X52315808Y-103114587D01*
X52220044Y-102850186D01*
X51930429Y-102709296D01*
X51618892Y-102627616D01*
X51297405Y-102608282D01*
X50978325Y-102652039D01*
X50673912Y-102757205D01*
X50499956Y-102850186D01*
X50404192Y-103114587D01*
X45315808Y-103114587D01*
X45220044Y-102850186D01*
X44930429Y-102709296D01*
X44618892Y-102627616D01*
X44297405Y-102608282D01*
X43978325Y-102652039D01*
X43673912Y-102757205D01*
X43499956Y-102850186D01*
X43404192Y-103114587D01*
X38815808Y-103114587D01*
X38720044Y-102850186D01*
X38430429Y-102709296D01*
X38118892Y-102627616D01*
X37797405Y-102608282D01*
X37478325Y-102652039D01*
X37173912Y-102757205D01*
X36999956Y-102850186D01*
X36904192Y-103114587D01*
X31945441Y-103114587D01*
X31965000Y-103016260D01*
X31965000Y-102723740D01*
X31907932Y-102436842D01*
X31795990Y-102166589D01*
X31633475Y-101923368D01*
X31426632Y-101716525D01*
X31183411Y-101554010D01*
X30913158Y-101442068D01*
X30626260Y-101385000D01*
X30333740Y-101385000D01*
X30046842Y-101442068D01*
X29776589Y-101554010D01*
X29533368Y-101716525D01*
X29326525Y-101923368D01*
X29164010Y-102166589D01*
X29052068Y-102436842D01*
X28995000Y-102723740D01*
X28127000Y-102723740D01*
X28127000Y-97960000D01*
X28991928Y-97960000D01*
X28991928Y-99660000D01*
X29004188Y-99784482D01*
X29040498Y-99904180D01*
X29099463Y-100014494D01*
X29178815Y-100111185D01*
X29275506Y-100190537D01*
X29385820Y-100249502D01*
X29505518Y-100285812D01*
X29630000Y-100298072D01*
X31330000Y-100298072D01*
X31454482Y-100285812D01*
X31574180Y-100249502D01*
X31684494Y-100190537D01*
X31781185Y-100111185D01*
X31860537Y-100014494D01*
X31919502Y-99904180D01*
X31955812Y-99784482D01*
X31968072Y-99660000D01*
X31968072Y-98693740D01*
X77255000Y-98693740D01*
X77255000Y-98986260D01*
X77312068Y-99273158D01*
X77424010Y-99543411D01*
X77586525Y-99786632D01*
X77793368Y-99993475D01*
X77975534Y-100115195D01*
X77858645Y-100184822D01*
X77642412Y-100379731D01*
X77468359Y-100613080D01*
X77343175Y-100875901D01*
X77298524Y-101023110D01*
X77419845Y-101253000D01*
X78613000Y-101253000D01*
X78613000Y-101233000D01*
X78867000Y-101233000D01*
X78867000Y-101253000D01*
X80060155Y-101253000D01*
X80181476Y-101023110D01*
X80136825Y-100875901D01*
X80011641Y-100613080D01*
X79837588Y-100379731D01*
X79621355Y-100184822D01*
X79504466Y-100115195D01*
X79686632Y-99993475D01*
X79893475Y-99786632D01*
X80055990Y-99543411D01*
X80167932Y-99273158D01*
X80225000Y-98986260D01*
X80225000Y-98693740D01*
X80167932Y-98406842D01*
X80055990Y-98136589D01*
X79893475Y-97893368D01*
X79686632Y-97686525D01*
X79443411Y-97524010D01*
X79173158Y-97412068D01*
X78886260Y-97355000D01*
X78593740Y-97355000D01*
X78306842Y-97412068D01*
X78036589Y-97524010D01*
X77793368Y-97686525D01*
X77586525Y-97893368D01*
X77424010Y-98136589D01*
X77312068Y-98406842D01*
X77255000Y-98693740D01*
X31968072Y-98693740D01*
X31968072Y-97960000D01*
X31955812Y-97835518D01*
X31919502Y-97715820D01*
X31860537Y-97605506D01*
X31781185Y-97508815D01*
X31684494Y-97429463D01*
X31574180Y-97370498D01*
X31501620Y-97348487D01*
X31633475Y-97216632D01*
X31795990Y-96973411D01*
X31907932Y-96703158D01*
X31965000Y-96416260D01*
X31965000Y-96123740D01*
X31907932Y-95836842D01*
X31795990Y-95566589D01*
X31633475Y-95323368D01*
X31426632Y-95116525D01*
X31252240Y-95000000D01*
X31426632Y-94883475D01*
X31633475Y-94676632D01*
X31795990Y-94433411D01*
X31907932Y-94163158D01*
X31965000Y-93876260D01*
X31965000Y-93583740D01*
X31907932Y-93296842D01*
X31795990Y-93026589D01*
X31718088Y-92910000D01*
X77251928Y-92910000D01*
X77251928Y-94610000D01*
X77264188Y-94734482D01*
X77300498Y-94854180D01*
X77359463Y-94964494D01*
X77438815Y-95061185D01*
X77535506Y-95140537D01*
X77645820Y-95199502D01*
X77765518Y-95235812D01*
X77890000Y-95248072D01*
X79590000Y-95248072D01*
X79714482Y-95235812D01*
X79834180Y-95199502D01*
X79944494Y-95140537D01*
X80041185Y-95061185D01*
X80120537Y-94964494D01*
X80179502Y-94854180D01*
X80215812Y-94734482D01*
X80228072Y-94610000D01*
X80228072Y-92910000D01*
X80215812Y-92785518D01*
X80179502Y-92665820D01*
X80120537Y-92555506D01*
X80041185Y-92458815D01*
X79944494Y-92379463D01*
X79834180Y-92320498D01*
X79761620Y-92298487D01*
X79893475Y-92166632D01*
X80055990Y-91923411D01*
X80167932Y-91653158D01*
X80225000Y-91366260D01*
X80225000Y-91073740D01*
X80167932Y-90786842D01*
X80055990Y-90516589D01*
X79893475Y-90273368D01*
X79686632Y-90066525D01*
X79512240Y-89950000D01*
X79686632Y-89833475D01*
X79893475Y-89626632D01*
X80055990Y-89383411D01*
X80167932Y-89113158D01*
X80225000Y-88826260D01*
X80225000Y-88533740D01*
X80167932Y-88246842D01*
X80055990Y-87976589D01*
X79893475Y-87733368D01*
X79686632Y-87526525D01*
X79512240Y-87410000D01*
X79686632Y-87293475D01*
X79893475Y-87086632D01*
X80055990Y-86843411D01*
X80167932Y-86573158D01*
X80225000Y-86286260D01*
X80225000Y-85993740D01*
X80167932Y-85706842D01*
X80055990Y-85436589D01*
X79893475Y-85193368D01*
X79686632Y-84986525D01*
X79512240Y-84870000D01*
X79686632Y-84753475D01*
X79893475Y-84546632D01*
X80055990Y-84303411D01*
X80167932Y-84033158D01*
X80225000Y-83746260D01*
X80225000Y-83453740D01*
X80167932Y-83166842D01*
X80055990Y-82896589D01*
X79893475Y-82653368D01*
X79686632Y-82446525D01*
X79512240Y-82330000D01*
X79686632Y-82213475D01*
X79893475Y-82006632D01*
X80055990Y-81763411D01*
X80167932Y-81493158D01*
X80225000Y-81206260D01*
X80225000Y-80913740D01*
X80167932Y-80626842D01*
X80055990Y-80356589D01*
X79893475Y-80113368D01*
X79686632Y-79906525D01*
X79443411Y-79744010D01*
X79173158Y-79632068D01*
X78886260Y-79575000D01*
X78593740Y-79575000D01*
X78306842Y-79632068D01*
X78036589Y-79744010D01*
X77793368Y-79906525D01*
X77586525Y-80113368D01*
X77424010Y-80356589D01*
X77312068Y-80626842D01*
X77255000Y-80913740D01*
X77255000Y-81206260D01*
X77312068Y-81493158D01*
X77424010Y-81763411D01*
X77586525Y-82006632D01*
X77793368Y-82213475D01*
X77967760Y-82330000D01*
X77793368Y-82446525D01*
X77586525Y-82653368D01*
X77424010Y-82896589D01*
X77312068Y-83166842D01*
X77255000Y-83453740D01*
X77255000Y-83746260D01*
X77312068Y-84033158D01*
X77424010Y-84303411D01*
X77586525Y-84546632D01*
X77793368Y-84753475D01*
X77967760Y-84870000D01*
X77793368Y-84986525D01*
X77586525Y-85193368D01*
X77424010Y-85436589D01*
X77312068Y-85706842D01*
X77255000Y-85993740D01*
X77255000Y-86286260D01*
X77312068Y-86573158D01*
X77424010Y-86843411D01*
X77586525Y-87086632D01*
X77793368Y-87293475D01*
X77967760Y-87410000D01*
X77793368Y-87526525D01*
X77586525Y-87733368D01*
X77424010Y-87976589D01*
X77312068Y-88246842D01*
X77255000Y-88533740D01*
X77255000Y-88826260D01*
X77312068Y-89113158D01*
X77424010Y-89383411D01*
X77586525Y-89626632D01*
X77793368Y-89833475D01*
X77967760Y-89950000D01*
X77793368Y-90066525D01*
X77586525Y-90273368D01*
X77424010Y-90516589D01*
X77312068Y-90786842D01*
X77255000Y-91073740D01*
X77255000Y-91366260D01*
X77312068Y-91653158D01*
X77424010Y-91923411D01*
X77586525Y-92166632D01*
X77718380Y-92298487D01*
X77645820Y-92320498D01*
X77535506Y-92379463D01*
X77438815Y-92458815D01*
X77359463Y-92555506D01*
X77300498Y-92665820D01*
X77264188Y-92785518D01*
X77251928Y-92910000D01*
X31718088Y-92910000D01*
X31633475Y-92783368D01*
X31426632Y-92576525D01*
X31252240Y-92460000D01*
X31426632Y-92343475D01*
X31633475Y-92136632D01*
X31795990Y-91893411D01*
X31907932Y-91623158D01*
X31965000Y-91336260D01*
X31965000Y-91043740D01*
X31907932Y-90756842D01*
X31795990Y-90486589D01*
X31633475Y-90243368D01*
X31426632Y-90036525D01*
X31252240Y-89920000D01*
X31426632Y-89803475D01*
X31633475Y-89596632D01*
X31795990Y-89353411D01*
X31907932Y-89083158D01*
X31965000Y-88796260D01*
X31965000Y-88503740D01*
X31907932Y-88216842D01*
X31795990Y-87946589D01*
X31633475Y-87703368D01*
X31426632Y-87496525D01*
X31252240Y-87380000D01*
X31426632Y-87263475D01*
X31633475Y-87056632D01*
X31795990Y-86813411D01*
X31907932Y-86543158D01*
X31965000Y-86256260D01*
X31965000Y-85963740D01*
X31907932Y-85676842D01*
X31795990Y-85406589D01*
X31633475Y-85163368D01*
X31426632Y-84956525D01*
X31252240Y-84840000D01*
X31426632Y-84723475D01*
X31633475Y-84516632D01*
X31795990Y-84273411D01*
X31907932Y-84003158D01*
X31965000Y-83716260D01*
X31965000Y-83423740D01*
X31907932Y-83136842D01*
X31795990Y-82866589D01*
X31633475Y-82623368D01*
X31426632Y-82416525D01*
X31252240Y-82300000D01*
X31426632Y-82183475D01*
X31633475Y-81976632D01*
X31795990Y-81733411D01*
X31907932Y-81463158D01*
X31965000Y-81176260D01*
X31965000Y-80883740D01*
X31907932Y-80596842D01*
X31795990Y-80326589D01*
X31633475Y-80083368D01*
X31426632Y-79876525D01*
X31183411Y-79714010D01*
X30913158Y-79602068D01*
X30626260Y-79545000D01*
X30333740Y-79545000D01*
X30046842Y-79602068D01*
X29776589Y-79714010D01*
X29533368Y-79876525D01*
X29326525Y-80083368D01*
X29164010Y-80326589D01*
X29052068Y-80596842D01*
X28995000Y-80883740D01*
X28995000Y-81176260D01*
X29052068Y-81463158D01*
X29164010Y-81733411D01*
X29326525Y-81976632D01*
X29533368Y-82183475D01*
X29707760Y-82300000D01*
X29533368Y-82416525D01*
X29326525Y-82623368D01*
X29164010Y-82866589D01*
X29052068Y-83136842D01*
X28995000Y-83423740D01*
X28995000Y-83716260D01*
X29052068Y-84003158D01*
X29164010Y-84273411D01*
X29326525Y-84516632D01*
X29533368Y-84723475D01*
X29707760Y-84840000D01*
X29533368Y-84956525D01*
X29326525Y-85163368D01*
X29164010Y-85406589D01*
X29052068Y-85676842D01*
X28995000Y-85963740D01*
X28995000Y-86256260D01*
X29052068Y-86543158D01*
X29164010Y-86813411D01*
X29326525Y-87056632D01*
X29533368Y-87263475D01*
X29707760Y-87380000D01*
X29533368Y-87496525D01*
X29326525Y-87703368D01*
X29164010Y-87946589D01*
X29052068Y-88216842D01*
X28995000Y-88503740D01*
X28995000Y-88796260D01*
X29052068Y-89083158D01*
X29164010Y-89353411D01*
X29326525Y-89596632D01*
X29533368Y-89803475D01*
X29707760Y-89920000D01*
X29533368Y-90036525D01*
X29326525Y-90243368D01*
X29164010Y-90486589D01*
X29052068Y-90756842D01*
X28995000Y-91043740D01*
X28995000Y-91336260D01*
X29052068Y-91623158D01*
X29164010Y-91893411D01*
X29326525Y-92136632D01*
X29533368Y-92343475D01*
X29707760Y-92460000D01*
X29533368Y-92576525D01*
X29326525Y-92783368D01*
X29164010Y-93026589D01*
X29052068Y-93296842D01*
X28995000Y-93583740D01*
X28995000Y-93876260D01*
X29052068Y-94163158D01*
X29164010Y-94433411D01*
X29326525Y-94676632D01*
X29533368Y-94883475D01*
X29707760Y-95000000D01*
X29533368Y-95116525D01*
X29326525Y-95323368D01*
X29164010Y-95566589D01*
X29052068Y-95836842D01*
X28995000Y-96123740D01*
X28995000Y-96416260D01*
X29052068Y-96703158D01*
X29164010Y-96973411D01*
X29326525Y-97216632D01*
X29458380Y-97348487D01*
X29385820Y-97370498D01*
X29275506Y-97429463D01*
X29178815Y-97508815D01*
X29099463Y-97605506D01*
X29040498Y-97715820D01*
X29004188Y-97835518D01*
X28991928Y-97960000D01*
X28127000Y-97960000D01*
X28127000Y-72150000D01*
X49321928Y-72150000D01*
X49321928Y-73850000D01*
X49334188Y-73974482D01*
X49370498Y-74094180D01*
X49429463Y-74204494D01*
X49508815Y-74301185D01*
X49605506Y-74380537D01*
X49715820Y-74439502D01*
X49835518Y-74475812D01*
X49960000Y-74488072D01*
X51660000Y-74488072D01*
X51784482Y-74475812D01*
X51904180Y-74439502D01*
X52014494Y-74380537D01*
X52111185Y-74301185D01*
X52190537Y-74204494D01*
X52249502Y-74094180D01*
X52273966Y-74013534D01*
X52349731Y-74097588D01*
X52583080Y-74271641D01*
X52845901Y-74396825D01*
X52993110Y-74441476D01*
X53223000Y-74320155D01*
X53223000Y-73127000D01*
X53203000Y-73127000D01*
X53203000Y-72873000D01*
X53223000Y-72873000D01*
X53223000Y-71679845D01*
X53477000Y-71679845D01*
X53477000Y-72873000D01*
X53497000Y-72873000D01*
X53497000Y-73127000D01*
X53477000Y-73127000D01*
X53477000Y-74320155D01*
X53706890Y-74441476D01*
X53854099Y-74396825D01*
X54116920Y-74271641D01*
X54350269Y-74097588D01*
X54545178Y-73881355D01*
X54614805Y-73764466D01*
X54736525Y-73946632D01*
X54943368Y-74153475D01*
X55186589Y-74315990D01*
X55456842Y-74427932D01*
X55743740Y-74485000D01*
X56036260Y-74485000D01*
X56323158Y-74427932D01*
X56593411Y-74315990D01*
X56836632Y-74153475D01*
X57043475Y-73946632D01*
X57160000Y-73772240D01*
X57276525Y-73946632D01*
X57483368Y-74153475D01*
X57726589Y-74315990D01*
X57996842Y-74427932D01*
X58283740Y-74485000D01*
X58576260Y-74485000D01*
X58863158Y-74427932D01*
X59133411Y-74315990D01*
X59376632Y-74153475D01*
X59583475Y-73946632D01*
X59745990Y-73703411D01*
X59857932Y-73433158D01*
X59915000Y-73146260D01*
X59915000Y-72853740D01*
X59857932Y-72566842D01*
X59745990Y-72296589D01*
X59583475Y-72053368D01*
X59376632Y-71846525D01*
X59133411Y-71684010D01*
X58863158Y-71572068D01*
X58576260Y-71515000D01*
X58283740Y-71515000D01*
X57996842Y-71572068D01*
X57726589Y-71684010D01*
X57483368Y-71846525D01*
X57276525Y-72053368D01*
X57160000Y-72227760D01*
X57043475Y-72053368D01*
X56836632Y-71846525D01*
X56593411Y-71684010D01*
X56323158Y-71572068D01*
X56036260Y-71515000D01*
X55743740Y-71515000D01*
X55456842Y-71572068D01*
X55186589Y-71684010D01*
X54943368Y-71846525D01*
X54736525Y-72053368D01*
X54614805Y-72235534D01*
X54545178Y-72118645D01*
X54350269Y-71902412D01*
X54116920Y-71728359D01*
X53854099Y-71603175D01*
X53706890Y-71558524D01*
X53477000Y-71679845D01*
X53223000Y-71679845D01*
X52993110Y-71558524D01*
X52845901Y-71603175D01*
X52583080Y-71728359D01*
X52349731Y-71902412D01*
X52273966Y-71986466D01*
X52249502Y-71905820D01*
X52190537Y-71795506D01*
X52111185Y-71698815D01*
X52014494Y-71619463D01*
X51904180Y-71560498D01*
X51784482Y-71524188D01*
X51660000Y-71511928D01*
X49960000Y-71511928D01*
X49835518Y-71524188D01*
X49715820Y-71560498D01*
X49605506Y-71619463D01*
X49508815Y-71698815D01*
X49429463Y-71795506D01*
X49370498Y-71905820D01*
X49334188Y-72025518D01*
X49321928Y-72150000D01*
X28127000Y-72150000D01*
X28127000Y-71127000D01*
X80873000Y-71127000D01*
X80873000Y-128873000D01*
G37*
%TD.AperFunction*%
%TD*%
M02*
