%TF.GenerationSoftware,KiCad,Pcbnew,(5.1.7)-1*%
%TF.CreationDate,2020-11-20T22:02:49-05:00*%
%TF.ProjectId,Temp Probe,54656d70-2050-4726-9f62-652e6b696361,rev?*%
%TF.SameCoordinates,Original*%
%TF.FileFunction,Paste,Top*%
%TF.FilePolarity,Positive*%
%FSLAX46Y46*%
G04 Gerber Fmt 4.6, Leading zero omitted, Abs format (unit mm)*
G04 Created by KiCad (PCBNEW (5.1.7)-1) date 2020-11-20 22:02:49*
%MOMM*%
%LPD*%
G01*
G04 APERTURE LIST*
%ADD10R,1.060000X0.650000*%
G04 APERTURE END LIST*
D10*
%TO.C,U1*%
X37850000Y-120800000D03*
X37850000Y-122700000D03*
X35650000Y-122700000D03*
X35650000Y-121750000D03*
X35650000Y-120800000D03*
%TD*%
%TO.C,U2*%
X72600000Y-84050000D03*
X72600000Y-85950000D03*
X70400000Y-85950000D03*
X70400000Y-85000000D03*
X70400000Y-84050000D03*
%TD*%
%TO.C,R1*%
G36*
G01*
X71100000Y-90549999D02*
X71100000Y-91450001D01*
G75*
G02*
X70850001Y-91700000I-249999J0D01*
G01*
X70149999Y-91700000D01*
G75*
G02*
X69900000Y-91450001I0J249999D01*
G01*
X69900000Y-90549999D01*
G75*
G02*
X70149999Y-90300000I249999J0D01*
G01*
X70850001Y-90300000D01*
G75*
G02*
X71100000Y-90549999I0J-249999D01*
G01*
G37*
G36*
G01*
X73100000Y-90549999D02*
X73100000Y-91450001D01*
G75*
G02*
X72850001Y-91700000I-249999J0D01*
G01*
X72149999Y-91700000D01*
G75*
G02*
X71900000Y-91450001I0J249999D01*
G01*
X71900000Y-90549999D01*
G75*
G02*
X72149999Y-90300000I249999J0D01*
G01*
X72850001Y-90300000D01*
G75*
G02*
X73100000Y-90549999I0J-249999D01*
G01*
G37*
%TD*%
%TO.C,R4*%
G36*
G01*
X37237500Y-117450002D02*
X37237500Y-116549998D01*
G75*
G02*
X37487498Y-116300000I249998J0D01*
G01*
X38012502Y-116300000D01*
G75*
G02*
X38262500Y-116549998I0J-249998D01*
G01*
X38262500Y-117450002D01*
G75*
G02*
X38012502Y-117700000I-249998J0D01*
G01*
X37487498Y-117700000D01*
G75*
G02*
X37237500Y-117450002I0J249998D01*
G01*
G37*
G36*
G01*
X35412500Y-117450002D02*
X35412500Y-116549998D01*
G75*
G02*
X35662498Y-116300000I249998J0D01*
G01*
X36187502Y-116300000D01*
G75*
G02*
X36437500Y-116549998I0J-249998D01*
G01*
X36437500Y-117450002D01*
G75*
G02*
X36187502Y-117700000I-249998J0D01*
G01*
X35662498Y-117700000D01*
G75*
G02*
X35412500Y-117450002I0J249998D01*
G01*
G37*
%TD*%
%TO.C,R3*%
G36*
G01*
X37150000Y-126450002D02*
X37150000Y-125549998D01*
G75*
G02*
X37399998Y-125300000I249998J0D01*
G01*
X37925002Y-125300000D01*
G75*
G02*
X38175000Y-125549998I0J-249998D01*
G01*
X38175000Y-126450002D01*
G75*
G02*
X37925002Y-126700000I-249998J0D01*
G01*
X37399998Y-126700000D01*
G75*
G02*
X37150000Y-126450002I0J249998D01*
G01*
G37*
G36*
G01*
X35325000Y-126450002D02*
X35325000Y-125549998D01*
G75*
G02*
X35574998Y-125300000I249998J0D01*
G01*
X36100002Y-125300000D01*
G75*
G02*
X36350000Y-125549998I0J-249998D01*
G01*
X36350000Y-126450002D01*
G75*
G02*
X36100002Y-126700000I-249998J0D01*
G01*
X35574998Y-126700000D01*
G75*
G02*
X35325000Y-126450002I0J249998D01*
G01*
G37*
%TD*%
%TO.C,R2*%
G36*
G01*
X52900000Y-115950002D02*
X52900000Y-115049998D01*
G75*
G02*
X53149998Y-114800000I249998J0D01*
G01*
X53675002Y-114800000D01*
G75*
G02*
X53925000Y-115049998I0J-249998D01*
G01*
X53925000Y-115950002D01*
G75*
G02*
X53675002Y-116200000I-249998J0D01*
G01*
X53149998Y-116200000D01*
G75*
G02*
X52900000Y-115950002I0J249998D01*
G01*
G37*
G36*
G01*
X51075000Y-115950002D02*
X51075000Y-115049998D01*
G75*
G02*
X51324998Y-114800000I249998J0D01*
G01*
X51850002Y-114800000D01*
G75*
G02*
X52100000Y-115049998I0J-249998D01*
G01*
X52100000Y-115950002D01*
G75*
G02*
X51850002Y-116200000I-249998J0D01*
G01*
X51324998Y-116200000D01*
G75*
G02*
X51075000Y-115950002I0J249998D01*
G01*
G37*
%TD*%
%TO.C,C3*%
G36*
G01*
X42475000Y-121300000D02*
X41525000Y-121300000D01*
G75*
G02*
X41275000Y-121050000I0J250000D01*
G01*
X41275000Y-120550000D01*
G75*
G02*
X41525000Y-120300000I250000J0D01*
G01*
X42475000Y-120300000D01*
G75*
G02*
X42725000Y-120550000I0J-250000D01*
G01*
X42725000Y-121050000D01*
G75*
G02*
X42475000Y-121300000I-250000J0D01*
G01*
G37*
G36*
G01*
X42475000Y-123200000D02*
X41525000Y-123200000D01*
G75*
G02*
X41275000Y-122950000I0J250000D01*
G01*
X41275000Y-122450000D01*
G75*
G02*
X41525000Y-122200000I250000J0D01*
G01*
X42475000Y-122200000D01*
G75*
G02*
X42725000Y-122450000I0J-250000D01*
G01*
X42725000Y-122950000D01*
G75*
G02*
X42475000Y-123200000I-250000J0D01*
G01*
G37*
%TD*%
%TO.C,C2*%
G36*
G01*
X71050000Y-78025000D02*
X71050000Y-78975000D01*
G75*
G02*
X70800000Y-79225000I-250000J0D01*
G01*
X70300000Y-79225000D01*
G75*
G02*
X70050000Y-78975000I0J250000D01*
G01*
X70050000Y-78025000D01*
G75*
G02*
X70300000Y-77775000I250000J0D01*
G01*
X70800000Y-77775000D01*
G75*
G02*
X71050000Y-78025000I0J-250000D01*
G01*
G37*
G36*
G01*
X72950000Y-78025000D02*
X72950000Y-78975000D01*
G75*
G02*
X72700000Y-79225000I-250000J0D01*
G01*
X72200000Y-79225000D01*
G75*
G02*
X71950000Y-78975000I0J250000D01*
G01*
X71950000Y-78025000D01*
G75*
G02*
X72200000Y-77775000I250000J0D01*
G01*
X72700000Y-77775000D01*
G75*
G02*
X72950000Y-78025000I0J-250000D01*
G01*
G37*
%TD*%
%TO.C,C1*%
G36*
G01*
X65475000Y-85050000D02*
X64525000Y-85050000D01*
G75*
G02*
X64275000Y-84800000I0J250000D01*
G01*
X64275000Y-84300000D01*
G75*
G02*
X64525000Y-84050000I250000J0D01*
G01*
X65475000Y-84050000D01*
G75*
G02*
X65725000Y-84300000I0J-250000D01*
G01*
X65725000Y-84800000D01*
G75*
G02*
X65475000Y-85050000I-250000J0D01*
G01*
G37*
G36*
G01*
X65475000Y-86950000D02*
X64525000Y-86950000D01*
G75*
G02*
X64275000Y-86700000I0J250000D01*
G01*
X64275000Y-86200000D01*
G75*
G02*
X64525000Y-85950000I250000J0D01*
G01*
X65475000Y-85950000D01*
G75*
G02*
X65725000Y-86200000I0J-250000D01*
G01*
X65725000Y-86700000D01*
G75*
G02*
X65475000Y-86950000I-250000J0D01*
G01*
G37*
%TD*%
M02*
