%TF.GenerationSoftware,KiCad,Pcbnew,(5.1.7)-1*%
%TF.CreationDate,2020-11-11T20:37:37-05:00*%
%TF.ProjectId,Temp Probe,54656d70-2050-4726-9f62-652e6b696361,rev?*%
%TF.SameCoordinates,Original*%
%TF.FileFunction,Soldermask,Top*%
%TF.FilePolarity,Negative*%
%FSLAX46Y46*%
G04 Gerber Fmt 4.6, Leading zero omitted, Abs format (unit mm)*
G04 Created by KiCad (PCBNEW (5.1.7)-1) date 2020-11-11 20:37:37*
%MOMM*%
%LPD*%
G01*
G04 APERTURE LIST*
%ADD10C,1.100000*%
%ADD11C,2.200000*%
%ADD12R,2.200000X2.200000*%
%ADD13R,1.060000X0.650000*%
%ADD14O,1.700000X1.700000*%
%ADD15R,1.700000X1.700000*%
%ADD16C,2.000000*%
G04 APERTURE END LIST*
D10*
%TO.C,TH1*%
X71750000Y-122540000D03*
D11*
X71750000Y-120000000D03*
D10*
X69210000Y-122540000D03*
D12*
X69210000Y-120000000D03*
%TD*%
D13*
%TO.C,U1*%
X37850000Y-120800000D03*
X37850000Y-122700000D03*
X35650000Y-122700000D03*
X35650000Y-121750000D03*
X35650000Y-120800000D03*
%TD*%
%TO.C,U2*%
X72600000Y-84050000D03*
X72600000Y-85950000D03*
X70400000Y-85950000D03*
X70400000Y-85000000D03*
X70400000Y-84050000D03*
%TD*%
%TO.C,R1*%
G36*
G01*
X71100000Y-90549999D02*
X71100000Y-91450001D01*
G75*
G02*
X70850001Y-91700000I-249999J0D01*
G01*
X70149999Y-91700000D01*
G75*
G02*
X69900000Y-91450001I0J249999D01*
G01*
X69900000Y-90549999D01*
G75*
G02*
X70149999Y-90300000I249999J0D01*
G01*
X70850001Y-90300000D01*
G75*
G02*
X71100000Y-90549999I0J-249999D01*
G01*
G37*
G36*
G01*
X73100000Y-90549999D02*
X73100000Y-91450001D01*
G75*
G02*
X72850001Y-91700000I-249999J0D01*
G01*
X72149999Y-91700000D01*
G75*
G02*
X71900000Y-91450001I0J249999D01*
G01*
X71900000Y-90549999D01*
G75*
G02*
X72149999Y-90300000I249999J0D01*
G01*
X72850001Y-90300000D01*
G75*
G02*
X73100000Y-90549999I0J-249999D01*
G01*
G37*
%TD*%
%TO.C,R4*%
G36*
G01*
X37237500Y-117450001D02*
X37237500Y-116549999D01*
G75*
G02*
X37487499Y-116300000I249999J0D01*
G01*
X38012501Y-116300000D01*
G75*
G02*
X38262500Y-116549999I0J-249999D01*
G01*
X38262500Y-117450001D01*
G75*
G02*
X38012501Y-117700000I-249999J0D01*
G01*
X37487499Y-117700000D01*
G75*
G02*
X37237500Y-117450001I0J249999D01*
G01*
G37*
G36*
G01*
X35412500Y-117450001D02*
X35412500Y-116549999D01*
G75*
G02*
X35662499Y-116300000I249999J0D01*
G01*
X36187501Y-116300000D01*
G75*
G02*
X36437500Y-116549999I0J-249999D01*
G01*
X36437500Y-117450001D01*
G75*
G02*
X36187501Y-117700000I-249999J0D01*
G01*
X35662499Y-117700000D01*
G75*
G02*
X35412500Y-117450001I0J249999D01*
G01*
G37*
%TD*%
%TO.C,R3*%
G36*
G01*
X37150000Y-126450001D02*
X37150000Y-125549999D01*
G75*
G02*
X37399999Y-125300000I249999J0D01*
G01*
X37925001Y-125300000D01*
G75*
G02*
X38175000Y-125549999I0J-249999D01*
G01*
X38175000Y-126450001D01*
G75*
G02*
X37925001Y-126700000I-249999J0D01*
G01*
X37399999Y-126700000D01*
G75*
G02*
X37150000Y-126450001I0J249999D01*
G01*
G37*
G36*
G01*
X35325000Y-126450001D02*
X35325000Y-125549999D01*
G75*
G02*
X35574999Y-125300000I249999J0D01*
G01*
X36100001Y-125300000D01*
G75*
G02*
X36350000Y-125549999I0J-249999D01*
G01*
X36350000Y-126450001D01*
G75*
G02*
X36100001Y-126700000I-249999J0D01*
G01*
X35574999Y-126700000D01*
G75*
G02*
X35325000Y-126450001I0J249999D01*
G01*
G37*
%TD*%
%TO.C,R2*%
G36*
G01*
X52900000Y-115950001D02*
X52900000Y-115049999D01*
G75*
G02*
X53149999Y-114800000I249999J0D01*
G01*
X53675001Y-114800000D01*
G75*
G02*
X53925000Y-115049999I0J-249999D01*
G01*
X53925000Y-115950001D01*
G75*
G02*
X53675001Y-116200000I-249999J0D01*
G01*
X53149999Y-116200000D01*
G75*
G02*
X52900000Y-115950001I0J249999D01*
G01*
G37*
G36*
G01*
X51075000Y-115950001D02*
X51075000Y-115049999D01*
G75*
G02*
X51324999Y-114800000I249999J0D01*
G01*
X51850001Y-114800000D01*
G75*
G02*
X52100000Y-115049999I0J-249999D01*
G01*
X52100000Y-115950001D01*
G75*
G02*
X51850001Y-116200000I-249999J0D01*
G01*
X51324999Y-116200000D01*
G75*
G02*
X51075000Y-115950001I0J249999D01*
G01*
G37*
%TD*%
%TO.C,C3*%
G36*
G01*
X42475000Y-121300000D02*
X41525000Y-121300000D01*
G75*
G02*
X41275000Y-121050000I0J250000D01*
G01*
X41275000Y-120550000D01*
G75*
G02*
X41525000Y-120300000I250000J0D01*
G01*
X42475000Y-120300000D01*
G75*
G02*
X42725000Y-120550000I0J-250000D01*
G01*
X42725000Y-121050000D01*
G75*
G02*
X42475000Y-121300000I-250000J0D01*
G01*
G37*
G36*
G01*
X42475000Y-123200000D02*
X41525000Y-123200000D01*
G75*
G02*
X41275000Y-122950000I0J250000D01*
G01*
X41275000Y-122450000D01*
G75*
G02*
X41525000Y-122200000I250000J0D01*
G01*
X42475000Y-122200000D01*
G75*
G02*
X42725000Y-122450000I0J-250000D01*
G01*
X42725000Y-122950000D01*
G75*
G02*
X42475000Y-123200000I-250000J0D01*
G01*
G37*
%TD*%
%TO.C,C2*%
G36*
G01*
X71050000Y-78025000D02*
X71050000Y-78975000D01*
G75*
G02*
X70800000Y-79225000I-250000J0D01*
G01*
X70300000Y-79225000D01*
G75*
G02*
X70050000Y-78975000I0J250000D01*
G01*
X70050000Y-78025000D01*
G75*
G02*
X70300000Y-77775000I250000J0D01*
G01*
X70800000Y-77775000D01*
G75*
G02*
X71050000Y-78025000I0J-250000D01*
G01*
G37*
G36*
G01*
X72950000Y-78025000D02*
X72950000Y-78975000D01*
G75*
G02*
X72700000Y-79225000I-250000J0D01*
G01*
X72200000Y-79225000D01*
G75*
G02*
X71950000Y-78975000I0J250000D01*
G01*
X71950000Y-78025000D01*
G75*
G02*
X72200000Y-77775000I250000J0D01*
G01*
X72700000Y-77775000D01*
G75*
G02*
X72950000Y-78025000I0J-250000D01*
G01*
G37*
%TD*%
%TO.C,C1*%
G36*
G01*
X65475000Y-85050000D02*
X64525000Y-85050000D01*
G75*
G02*
X64275000Y-84800000I0J250000D01*
G01*
X64275000Y-84300000D01*
G75*
G02*
X64525000Y-84050000I250000J0D01*
G01*
X65475000Y-84050000D01*
G75*
G02*
X65725000Y-84300000I0J-250000D01*
G01*
X65725000Y-84800000D01*
G75*
G02*
X65475000Y-85050000I-250000J0D01*
G01*
G37*
G36*
G01*
X65475000Y-86950000D02*
X64525000Y-86950000D01*
G75*
G02*
X64275000Y-86700000I0J250000D01*
G01*
X64275000Y-86200000D01*
G75*
G02*
X64525000Y-85950000I250000J0D01*
G01*
X65475000Y-85950000D01*
G75*
G02*
X65725000Y-86200000I0J-250000D01*
G01*
X65725000Y-86700000D01*
G75*
G02*
X65475000Y-86950000I-250000J0D01*
G01*
G37*
%TD*%
D14*
%TO.C,U3*%
X58430000Y-73000000D03*
X55890000Y-73000000D03*
X53350000Y-73000000D03*
D15*
X50810000Y-73000000D03*
%TD*%
D16*
%TO.C,SW1*%
X44360000Y-104250000D03*
X44360000Y-108750000D03*
X37860000Y-104250000D03*
X37860000Y-108750000D03*
%TD*%
%TO.C,SW2*%
X57860000Y-104250000D03*
X57860000Y-108750000D03*
X51360000Y-104250000D03*
X51360000Y-108750000D03*
%TD*%
%TO.C,SW3*%
X71360000Y-104250000D03*
X71360000Y-108750000D03*
X64860000Y-104250000D03*
X64860000Y-108750000D03*
%TD*%
D14*
%TO.C,J4*%
X30480000Y-102870000D03*
X30480000Y-105410000D03*
X30480000Y-107950000D03*
X30480000Y-110490000D03*
X30480000Y-113030000D03*
X30480000Y-115570000D03*
X30480000Y-118110000D03*
X30480000Y-120650000D03*
X30480000Y-123190000D03*
D15*
X30480000Y-125730000D03*
%TD*%
D14*
%TO.C,J3*%
X78740000Y-98840000D03*
X78740000Y-101380000D03*
X78740000Y-103920000D03*
X78740000Y-106460000D03*
X78740000Y-109000000D03*
X78740000Y-111540000D03*
X78740000Y-114080000D03*
D15*
X78740000Y-116620000D03*
%TD*%
D14*
%TO.C,J2*%
X30480000Y-81030000D03*
X30480000Y-83570000D03*
X30480000Y-86110000D03*
X30480000Y-88650000D03*
X30480000Y-91190000D03*
X30480000Y-93730000D03*
X30480000Y-96270000D03*
D15*
X30480000Y-98810000D03*
%TD*%
D14*
%TO.C,J1*%
X78740000Y-81060000D03*
X78740000Y-83600000D03*
X78740000Y-86140000D03*
X78740000Y-88680000D03*
X78740000Y-91220000D03*
D15*
X78740000Y-93760000D03*
%TD*%
D14*
%TO.C,D1*%
X53320000Y-120750000D03*
D15*
X55860000Y-120750000D03*
%TD*%
M02*
