M48
; DRILL file {KiCad (5.1.7)-1} date 11/11/20 20:37:44
; FORMAT={-:-/ absolute / inch / decimal}
; #@! TF.CreationDate,2020-11-11T20:37:44-05:00
; #@! TF.GenerationSoftware,Kicad,Pcbnew,(5.1.7)-1
; #@! TF.FileFunction,Plated,1,2,PTH
FMAT,2
INCH
T1C0.0157
T2C0.0394
T3C0.0433
%
G90
G05
T1
X1.5453Y-4.813
X2.6378Y-3.1693
T2
X1.2Y-3.1902
X1.2Y-3.2902
X1.2Y-3.3902
X1.2Y-3.4902
X1.2Y-3.5902
X1.2Y-3.6902
X1.2Y-3.7902
X1.2Y-3.8902
X1.2Y-4.05
X1.2Y-4.15
X1.2Y-4.25
X1.2Y-4.35
X1.2Y-4.45
X1.2Y-4.55
X1.2Y-4.65
X1.2Y-4.75
X1.2Y-4.85
X1.2Y-4.95
X3.1Y-3.8913
X3.1Y-3.9913
X3.1Y-4.0913
X3.1Y-4.1913
X3.1Y-4.2913
X3.1Y-4.3913
X3.1Y-4.4913
X3.1Y-4.5913
X2.0004Y-2.874
X2.1004Y-2.874
X2.2004Y-2.874
X2.3004Y-2.874
X2.0992Y-4.7539
X2.1992Y-4.7539
X3.1Y-3.1913
X3.1Y-3.2913
X3.1Y-3.3913
X3.1Y-3.4913
X3.1Y-3.5913
X3.1Y-3.6913
T3
X2.022Y-4.1043
X2.022Y-4.2815
X2.278Y-4.1043
X2.278Y-4.2815
X2.5535Y-4.1043
X2.5535Y-4.2815
X2.8094Y-4.1043
X2.8094Y-4.2815
X1.4906Y-4.1043
X1.4906Y-4.2815
X1.7465Y-4.1043
X1.7465Y-4.2815
X2.7248Y-4.7244
X2.8248Y-4.7244
T0
M30
